<?xml version="1.0" encoding="utf-8" standalone="no"?>
<!DOCTYPE svg PUBLIC "-//W3C//DTD SVG 1.1//EN"
  "http://www.w3.org/Graphics/SVG/1.1/DTD/svg11.dtd">
<svg xmlns:xlink="http://www.w3.org/1999/xlink" width="625.089175pt" height="310.86825pt" viewBox="0 0 625.089175 310.86825" xmlns="http://www.w3.org/2000/svg" version="1.1">
 <metadata>
  <rdf:RDF xmlns:dc="http://purl.org/dc/elements/1.1/" xmlns:cc="http://creativecommons.org/ns#" xmlns:rdf="http://www.w3.org/1999/02/22-rdf-syntax-ns#">
   <cc:Work>
    <dc:type rdf:resource="http://purl.org/dc/dcmitype/StillImage"/>
    <dc:date>2025-12-22T06:58:06.838591</dc:date>
    <dc:format>image/svg+xml</dc:format>
    <dc:creator>
     <cc:Agent>
      <dc:title>Matplotlib v3.9.2, https://matplotlib.org/</dc:title>
     </cc:Agent>
    </dc:creator>
   </cc:Work>
  </rdf:RDF>
 </metadata>
 <defs>
  <style type="text/css">*{stroke-linejoin: round; stroke-linecap: butt}</style>
 </defs>
 <g id="figure_1">
  <g id="patch_1">
   <path d="M 0 310.86825 
L 625.089175 310.86825 
L 625.089175 0 
L 0 0 
z
" style="fill: #ffffff"/>
  </g>
  <g id="axes_1">
   <g id="patch_2">
    <path d="M 50.14375 273.312 
L 407.26375 273.312 
L 407.26375 7.2 
L 50.14375 7.2 
z
" style="fill: #ffffff"/>
   </g>
   <g id="matplotlib.axis_1">
    <g id="xtick_1">
     <g id="line2d_1">
      <defs>
       <path id="mdf7accbadb" d="M 0 0 
L 0 3.5 
" style="stroke: #000000; stroke-width: 0.8"/>
      </defs>
      <g>
       <use xlink:href="#mdf7accbadb" x="66.376477" y="273.312" style="stroke: #000000; stroke-width: 0.8"/>
      </g>
     </g>
     <g id="text_1">
      <!-- 0 -->
      <g transform="translate(63.195227 287.910437) scale(0.1 -0.1)">
       <defs>
        <path id="DejaVuSans-30" d="M 2034 4250 
Q 1547 4250 1301 3770 
Q 1056 3291 1056 2328 
Q 1056 1369 1301 889 
Q 1547 409 2034 409 
Q 2525 409 2770 889 
Q 3016 1369 3016 2328 
Q 3016 3291 2770 3770 
Q 2525 4250 2034 4250 
z
M 2034 4750 
Q 2819 4750 3233 4129 
Q 3647 3509 3647 2328 
Q 3647 1150 3233 529 
Q 2819 -91 2034 -91 
Q 1250 -91 836 529 
Q 422 1150 422 2328 
Q 422 3509 836 4129 
Q 1250 4750 2034 4750 
z
" transform="scale(0.015625)"/>
       </defs>
       <use xlink:href="#DejaVuSans-30"/>
      </g>
     </g>
    </g>
    <g id="xtick_2">
     <g id="line2d_2">
      <g>
       <use xlink:href="#mdf7accbadb" x="131.307386" y="273.312" style="stroke: #000000; stroke-width: 0.8"/>
      </g>
     </g>
     <g id="text_2">
      <!-- 1 -->
      <g transform="translate(128.126136 287.910437) scale(0.1 -0.1)">
       <defs>
        <path id="DejaVuSans-31" d="M 794 531 
L 1825 531 
L 1825 4091 
L 703 3866 
L 703 4441 
L 1819 4666 
L 2450 4666 
L 2450 531 
L 3481 531 
L 3481 0 
L 794 0 
L 794 531 
z
" transform="scale(0.015625)"/>
       </defs>
       <use xlink:href="#DejaVuSans-31"/>
      </g>
     </g>
    </g>
    <g id="xtick_3">
     <g id="line2d_3">
      <g>
       <use xlink:href="#mdf7accbadb" x="196.238295" y="273.312" style="stroke: #000000; stroke-width: 0.8"/>
      </g>
     </g>
     <g id="text_3">
      <!-- 2 -->
      <g transform="translate(193.057045 287.910437) scale(0.1 -0.1)">
       <defs>
        <path id="DejaVuSans-32" d="M 1228 531 
L 3431 531 
L 3431 0 
L 469 0 
L 469 531 
Q 828 903 1448 1529 
Q 2069 2156 2228 2338 
Q 2531 2678 2651 2914 
Q 2772 3150 2772 3378 
Q 2772 3750 2511 3984 
Q 2250 4219 1831 4219 
Q 1534 4219 1204 4116 
Q 875 4013 500 3803 
L 500 4441 
Q 881 4594 1212 4672 
Q 1544 4750 1819 4750 
Q 2544 4750 2975 4387 
Q 3406 4025 3406 3419 
Q 3406 3131 3298 2873 
Q 3191 2616 2906 2266 
Q 2828 2175 2409 1742 
Q 1991 1309 1228 531 
z
" transform="scale(0.015625)"/>
       </defs>
       <use xlink:href="#DejaVuSans-32"/>
      </g>
     </g>
    </g>
    <g id="xtick_4">
     <g id="line2d_4">
      <g>
       <use xlink:href="#mdf7accbadb" x="261.169205" y="273.312" style="stroke: #000000; stroke-width: 0.8"/>
      </g>
     </g>
     <g id="text_4">
      <!-- 3 -->
      <g transform="translate(257.987955 287.910437) scale(0.1 -0.1)">
       <defs>
        <path id="DejaVuSans-33" d="M 2597 2516 
Q 3050 2419 3304 2112 
Q 3559 1806 3559 1356 
Q 3559 666 3084 287 
Q 2609 -91 1734 -91 
Q 1441 -91 1130 -33 
Q 819 25 488 141 
L 488 750 
Q 750 597 1062 519 
Q 1375 441 1716 441 
Q 2309 441 2620 675 
Q 2931 909 2931 1356 
Q 2931 1769 2642 2001 
Q 2353 2234 1838 2234 
L 1294 2234 
L 1294 2753 
L 1863 2753 
Q 2328 2753 2575 2939 
Q 2822 3125 2822 3475 
Q 2822 3834 2567 4026 
Q 2313 4219 1838 4219 
Q 1578 4219 1281 4162 
Q 984 4106 628 3988 
L 628 4550 
Q 988 4650 1302 4700 
Q 1616 4750 1894 4750 
Q 2613 4750 3031 4423 
Q 3450 4097 3450 3541 
Q 3450 3153 3228 2886 
Q 3006 2619 2597 2516 
z
" transform="scale(0.015625)"/>
       </defs>
       <use xlink:href="#DejaVuSans-33"/>
      </g>
     </g>
    </g>
    <g id="xtick_5">
     <g id="line2d_5">
      <g>
       <use xlink:href="#mdf7accbadb" x="326.100114" y="273.312" style="stroke: #000000; stroke-width: 0.8"/>
      </g>
     </g>
     <g id="text_5">
      <!-- 4 -->
      <g transform="translate(322.918864 287.910437) scale(0.1 -0.1)">
       <defs>
        <path id="DejaVuSans-34" d="M 2419 4116 
L 825 1625 
L 2419 1625 
L 2419 4116 
z
M 2253 4666 
L 3047 4666 
L 3047 1625 
L 3713 1625 
L 3713 1100 
L 3047 1100 
L 3047 0 
L 2419 0 
L 2419 1100 
L 313 1100 
L 313 1709 
L 2253 4666 
z
" transform="scale(0.015625)"/>
       </defs>
       <use xlink:href="#DejaVuSans-34"/>
      </g>
     </g>
    </g>
    <g id="xtick_6">
     <g id="line2d_6">
      <g>
       <use xlink:href="#mdf7accbadb" x="391.031023" y="273.312" style="stroke: #000000; stroke-width: 0.8"/>
      </g>
     </g>
     <g id="text_6">
      <!-- 5 -->
      <g transform="translate(387.849773 287.910437) scale(0.1 -0.1)">
       <defs>
        <path id="DejaVuSans-35" d="M 691 4666 
L 3169 4666 
L 3169 4134 
L 1269 4134 
L 1269 2991 
Q 1406 3038 1543 3061 
Q 1681 3084 1819 3084 
Q 2600 3084 3056 2656 
Q 3513 2228 3513 1497 
Q 3513 744 3044 326 
Q 2575 -91 1722 -91 
Q 1428 -91 1123 -41 
Q 819 9 494 109 
L 494 744 
Q 775 591 1075 516 
Q 1375 441 1709 441 
Q 2250 441 2565 725 
Q 2881 1009 2881 1497 
Q 2881 1984 2565 2268 
Q 2250 2553 1709 2553 
Q 1456 2553 1204 2497 
Q 953 2441 691 2322 
L 691 4666 
z
" transform="scale(0.015625)"/>
       </defs>
       <use xlink:href="#DejaVuSans-35"/>
      </g>
     </g>
    </g>
    <g id="text_7">
     <!-- Time (ms) -->
     <g transform="translate(203.504531 301.588562) scale(0.1 -0.1)">
      <defs>
       <path id="DejaVuSans-54" d="M -19 4666 
L 3928 4666 
L 3928 4134 
L 2272 4134 
L 2272 0 
L 1638 0 
L 1638 4134 
L -19 4134 
L -19 4666 
z
" transform="scale(0.015625)"/>
       <path id="DejaVuSans-69" d="M 603 3500 
L 1178 3500 
L 1178 0 
L 603 0 
L 603 3500 
z
M 603 4863 
L 1178 4863 
L 1178 4134 
L 603 4134 
L 603 4863 
z
" transform="scale(0.015625)"/>
       <path id="DejaVuSans-6d" d="M 3328 2828 
Q 3544 3216 3844 3400 
Q 4144 3584 4550 3584 
Q 5097 3584 5394 3201 
Q 5691 2819 5691 2113 
L 5691 0 
L 5113 0 
L 5113 2094 
Q 5113 2597 4934 2840 
Q 4756 3084 4391 3084 
Q 3944 3084 3684 2787 
Q 3425 2491 3425 1978 
L 3425 0 
L 2847 0 
L 2847 2094 
Q 2847 2600 2669 2842 
Q 2491 3084 2119 3084 
Q 1678 3084 1418 2786 
Q 1159 2488 1159 1978 
L 1159 0 
L 581 0 
L 581 3500 
L 1159 3500 
L 1159 2956 
Q 1356 3278 1631 3431 
Q 1906 3584 2284 3584 
Q 2666 3584 2933 3390 
Q 3200 3197 3328 2828 
z
" transform="scale(0.015625)"/>
       <path id="DejaVuSans-65" d="M 3597 1894 
L 3597 1613 
L 953 1613 
Q 991 1019 1311 708 
Q 1631 397 2203 397 
Q 2534 397 2845 478 
Q 3156 559 3463 722 
L 3463 178 
Q 3153 47 2828 -22 
Q 2503 -91 2169 -91 
Q 1331 -91 842 396 
Q 353 884 353 1716 
Q 353 2575 817 3079 
Q 1281 3584 2069 3584 
Q 2775 3584 3186 3129 
Q 3597 2675 3597 1894 
z
M 3022 2063 
Q 3016 2534 2758 2815 
Q 2500 3097 2075 3097 
Q 1594 3097 1305 2825 
Q 1016 2553 972 2059 
L 3022 2063 
z
" transform="scale(0.015625)"/>
       <path id="DejaVuSans-20" transform="scale(0.015625)"/>
       <path id="DejaVuSans-28" d="M 1984 4856 
Q 1566 4138 1362 3434 
Q 1159 2731 1159 2009 
Q 1159 1288 1364 580 
Q 1569 -128 1984 -844 
L 1484 -844 
Q 1016 -109 783 600 
Q 550 1309 550 2009 
Q 550 2706 781 3412 
Q 1013 4119 1484 4856 
L 1984 4856 
z
" transform="scale(0.015625)"/>
       <path id="DejaVuSans-73" d="M 2834 3397 
L 2834 2853 
Q 2591 2978 2328 3040 
Q 2066 3103 1784 3103 
Q 1356 3103 1142 2972 
Q 928 2841 928 2578 
Q 928 2378 1081 2264 
Q 1234 2150 1697 2047 
L 1894 2003 
Q 2506 1872 2764 1633 
Q 3022 1394 3022 966 
Q 3022 478 2636 193 
Q 2250 -91 1575 -91 
Q 1294 -91 989 -36 
Q 684 19 347 128 
L 347 722 
Q 666 556 975 473 
Q 1284 391 1588 391 
Q 1994 391 2212 530 
Q 2431 669 2431 922 
Q 2431 1156 2273 1281 
Q 2116 1406 1581 1522 
L 1381 1569 
Q 847 1681 609 1914 
Q 372 2147 372 2553 
Q 372 3047 722 3315 
Q 1072 3584 1716 3584 
Q 2034 3584 2315 3537 
Q 2597 3491 2834 3397 
z
" transform="scale(0.015625)"/>
       <path id="DejaVuSans-29" d="M 513 4856 
L 1013 4856 
Q 1481 4119 1714 3412 
Q 1947 2706 1947 2009 
Q 1947 1309 1714 600 
Q 1481 -109 1013 -844 
L 513 -844 
Q 928 -128 1133 580 
Q 1338 1288 1338 2009 
Q 1338 2731 1133 3434 
Q 928 4138 513 4856 
z
" transform="scale(0.015625)"/>
      </defs>
      <use xlink:href="#DejaVuSans-54"/>
      <use xlink:href="#DejaVuSans-69" x="57.958984"/>
      <use xlink:href="#DejaVuSans-6d" x="85.742188"/>
      <use xlink:href="#DejaVuSans-65" x="183.154297"/>
      <use xlink:href="#DejaVuSans-20" x="244.677734"/>
      <use xlink:href="#DejaVuSans-28" x="276.464844"/>
      <use xlink:href="#DejaVuSans-6d" x="315.478516"/>
      <use xlink:href="#DejaVuSans-73" x="412.890625"/>
      <use xlink:href="#DejaVuSans-29" x="464.990234"/>
     </g>
    </g>
    <g id="text_8">
     <!-- 1e−8 -->
     <g transform="translate(380.005938 300.588562) scale(0.1 -0.1)">
      <defs>
       <path id="DejaVuSans-2212" d="M 678 2272 
L 4684 2272 
L 4684 1741 
L 678 1741 
L 678 2272 
z
" transform="scale(0.015625)"/>
       <path id="DejaVuSans-38" d="M 2034 2216 
Q 1584 2216 1326 1975 
Q 1069 1734 1069 1313 
Q 1069 891 1326 650 
Q 1584 409 2034 409 
Q 2484 409 2743 651 
Q 3003 894 3003 1313 
Q 3003 1734 2745 1975 
Q 2488 2216 2034 2216 
z
M 1403 2484 
Q 997 2584 770 2862 
Q 544 3141 544 3541 
Q 544 4100 942 4425 
Q 1341 4750 2034 4750 
Q 2731 4750 3128 4425 
Q 3525 4100 3525 3541 
Q 3525 3141 3298 2862 
Q 3072 2584 2669 2484 
Q 3125 2378 3379 2068 
Q 3634 1759 3634 1313 
Q 3634 634 3220 271 
Q 2806 -91 2034 -91 
Q 1263 -91 848 271 
Q 434 634 434 1313 
Q 434 1759 690 2068 
Q 947 2378 1403 2484 
z
M 1172 3481 
Q 1172 3119 1398 2916 
Q 1625 2713 2034 2713 
Q 2441 2713 2670 2916 
Q 2900 3119 2900 3481 
Q 2900 3844 2670 4047 
Q 2441 4250 2034 4250 
Q 1625 4250 1398 4047 
Q 1172 3844 1172 3481 
z
" transform="scale(0.015625)"/>
      </defs>
      <use xlink:href="#DejaVuSans-31"/>
      <use xlink:href="#DejaVuSans-65" x="63.623047"/>
      <use xlink:href="#DejaVuSans-2212" x="125.146484"/>
      <use xlink:href="#DejaVuSans-38" x="208.935547"/>
     </g>
    </g>
   </g>
   <g id="matplotlib.axis_2">
    <g id="ytick_1">
     <g id="line2d_7">
      <defs>
       <path id="mbb36867c39" d="M 0 0 
L -3.5 0 
" style="stroke: #000000; stroke-width: 0.8"/>
      </defs>
      <g>
       <use xlink:href="#mbb36867c39" x="50.14375" y="260.300648" style="stroke: #000000; stroke-width: 0.8"/>
      </g>
     </g>
     <g id="text_9">
      <!-- 0.00 -->
      <g transform="translate(20.878125 264.099866) scale(0.1 -0.1)">
       <defs>
        <path id="DejaVuSans-2e" d="M 684 794 
L 1344 794 
L 1344 0 
L 684 0 
L 684 794 
z
" transform="scale(0.015625)"/>
       </defs>
       <use xlink:href="#DejaVuSans-30"/>
       <use xlink:href="#DejaVuSans-2e" x="63.623047"/>
       <use xlink:href="#DejaVuSans-30" x="95.410156"/>
       <use xlink:href="#DejaVuSans-30" x="159.033203"/>
      </g>
     </g>
    </g>
    <g id="ytick_2">
     <g id="line2d_8">
      <g>
       <use xlink:href="#mbb36867c39" x="50.14375" y="227.075389" style="stroke: #000000; stroke-width: 0.8"/>
      </g>
     </g>
     <g id="text_10">
      <!-- 0.25 -->
      <g transform="translate(20.878125 230.874608) scale(0.1 -0.1)">
       <use xlink:href="#DejaVuSans-30"/>
       <use xlink:href="#DejaVuSans-2e" x="63.623047"/>
       <use xlink:href="#DejaVuSans-32" x="95.410156"/>
       <use xlink:href="#DejaVuSans-35" x="159.033203"/>
      </g>
     </g>
    </g>
    <g id="ytick_3">
     <g id="line2d_9">
      <g>
       <use xlink:href="#mbb36867c39" x="50.14375" y="193.850131" style="stroke: #000000; stroke-width: 0.8"/>
      </g>
     </g>
     <g id="text_11">
      <!-- 0.50 -->
      <g transform="translate(20.878125 197.649349) scale(0.1 -0.1)">
       <use xlink:href="#DejaVuSans-30"/>
       <use xlink:href="#DejaVuSans-2e" x="63.623047"/>
       <use xlink:href="#DejaVuSans-35" x="95.410156"/>
       <use xlink:href="#DejaVuSans-30" x="159.033203"/>
      </g>
     </g>
    </g>
    <g id="ytick_4">
     <g id="line2d_10">
      <g>
       <use xlink:href="#mbb36867c39" x="50.14375" y="160.624872" style="stroke: #000000; stroke-width: 0.8"/>
      </g>
     </g>
     <g id="text_12">
      <!-- 0.75 -->
      <g transform="translate(20.878125 164.424091) scale(0.1 -0.1)">
       <defs>
        <path id="DejaVuSans-37" d="M 525 4666 
L 3525 4666 
L 3525 4397 
L 1831 0 
L 1172 0 
L 2766 4134 
L 525 4134 
L 525 4666 
z
" transform="scale(0.015625)"/>
       </defs>
       <use xlink:href="#DejaVuSans-30"/>
       <use xlink:href="#DejaVuSans-2e" x="63.623047"/>
       <use xlink:href="#DejaVuSans-37" x="95.410156"/>
       <use xlink:href="#DejaVuSans-35" x="159.033203"/>
      </g>
     </g>
    </g>
    <g id="ytick_5">
     <g id="line2d_11">
      <g>
       <use xlink:href="#mbb36867c39" x="50.14375" y="127.399614" style="stroke: #000000; stroke-width: 0.8"/>
      </g>
     </g>
     <g id="text_13">
      <!-- 1.00 -->
      <g transform="translate(20.878125 131.198832) scale(0.1 -0.1)">
       <use xlink:href="#DejaVuSans-31"/>
       <use xlink:href="#DejaVuSans-2e" x="63.623047"/>
       <use xlink:href="#DejaVuSans-30" x="95.410156"/>
       <use xlink:href="#DejaVuSans-30" x="159.033203"/>
      </g>
     </g>
    </g>
    <g id="ytick_6">
     <g id="line2d_12">
      <g>
       <use xlink:href="#mbb36867c39" x="50.14375" y="94.174355" style="stroke: #000000; stroke-width: 0.8"/>
      </g>
     </g>
     <g id="text_14">
      <!-- 1.25 -->
      <g transform="translate(20.878125 97.973574) scale(0.1 -0.1)">
       <use xlink:href="#DejaVuSans-31"/>
       <use xlink:href="#DejaVuSans-2e" x="63.623047"/>
       <use xlink:href="#DejaVuSans-32" x="95.410156"/>
       <use xlink:href="#DejaVuSans-35" x="159.033203"/>
      </g>
     </g>
    </g>
    <g id="ytick_7">
     <g id="line2d_13">
      <g>
       <use xlink:href="#mbb36867c39" x="50.14375" y="60.949097" style="stroke: #000000; stroke-width: 0.8"/>
      </g>
     </g>
     <g id="text_15">
      <!-- 1.50 -->
      <g transform="translate(20.878125 64.748315) scale(0.1 -0.1)">
       <use xlink:href="#DejaVuSans-31"/>
       <use xlink:href="#DejaVuSans-2e" x="63.623047"/>
       <use xlink:href="#DejaVuSans-35" x="95.410156"/>
       <use xlink:href="#DejaVuSans-30" x="159.033203"/>
      </g>
     </g>
    </g>
    <g id="ytick_8">
     <g id="line2d_14">
      <g>
       <use xlink:href="#mbb36867c39" x="50.14375" y="27.723838" style="stroke: #000000; stroke-width: 0.8"/>
      </g>
     </g>
     <g id="text_16">
      <!-- 1.75 -->
      <g transform="translate(20.878125 31.523057) scale(0.1 -0.1)">
       <use xlink:href="#DejaVuSans-31"/>
       <use xlink:href="#DejaVuSans-2e" x="63.623047"/>
       <use xlink:href="#DejaVuSans-37" x="95.410156"/>
       <use xlink:href="#DejaVuSans-35" x="159.033203"/>
      </g>
     </g>
    </g>
    <g id="text_17">
     <!-- Vout (V), Vin (V) -->
     <g transform="translate(14.798438 180.342719) rotate(-90) scale(0.1 -0.1)">
      <defs>
       <path id="DejaVuSans-56" d="M 1831 0 
L 50 4666 
L 709 4666 
L 2188 738 
L 3669 4666 
L 4325 4666 
L 2547 0 
L 1831 0 
z
" transform="scale(0.015625)"/>
       <path id="DejaVuSans-6f" d="M 1959 3097 
Q 1497 3097 1228 2736 
Q 959 2375 959 1747 
Q 959 1119 1226 758 
Q 1494 397 1959 397 
Q 2419 397 2687 759 
Q 2956 1122 2956 1747 
Q 2956 2369 2687 2733 
Q 2419 3097 1959 3097 
z
M 1959 3584 
Q 2709 3584 3137 3096 
Q 3566 2609 3566 1747 
Q 3566 888 3137 398 
Q 2709 -91 1959 -91 
Q 1206 -91 779 398 
Q 353 888 353 1747 
Q 353 2609 779 3096 
Q 1206 3584 1959 3584 
z
" transform="scale(0.015625)"/>
       <path id="DejaVuSans-75" d="M 544 1381 
L 544 3500 
L 1119 3500 
L 1119 1403 
Q 1119 906 1312 657 
Q 1506 409 1894 409 
Q 2359 409 2629 706 
Q 2900 1003 2900 1516 
L 2900 3500 
L 3475 3500 
L 3475 0 
L 2900 0 
L 2900 538 
Q 2691 219 2414 64 
Q 2138 -91 1772 -91 
Q 1169 -91 856 284 
Q 544 659 544 1381 
z
M 1991 3584 
L 1991 3584 
z
" transform="scale(0.015625)"/>
       <path id="DejaVuSans-74" d="M 1172 4494 
L 1172 3500 
L 2356 3500 
L 2356 3053 
L 1172 3053 
L 1172 1153 
Q 1172 725 1289 603 
Q 1406 481 1766 481 
L 2356 481 
L 2356 0 
L 1766 0 
Q 1100 0 847 248 
Q 594 497 594 1153 
L 594 3053 
L 172 3053 
L 172 3500 
L 594 3500 
L 594 4494 
L 1172 4494 
z
" transform="scale(0.015625)"/>
       <path id="DejaVuSans-2c" d="M 750 794 
L 1409 794 
L 1409 256 
L 897 -744 
L 494 -744 
L 750 256 
L 750 794 
z
" transform="scale(0.015625)"/>
       <path id="DejaVuSans-6e" d="M 3513 2113 
L 3513 0 
L 2938 0 
L 2938 2094 
Q 2938 2591 2744 2837 
Q 2550 3084 2163 3084 
Q 1697 3084 1428 2787 
Q 1159 2491 1159 1978 
L 1159 0 
L 581 0 
L 581 3500 
L 1159 3500 
L 1159 2956 
Q 1366 3272 1645 3428 
Q 1925 3584 2291 3584 
Q 2894 3584 3203 3211 
Q 3513 2838 3513 2113 
z
" transform="scale(0.015625)"/>
      </defs>
      <use xlink:href="#DejaVuSans-56"/>
      <use xlink:href="#DejaVuSans-6f" x="60.658203"/>
      <use xlink:href="#DejaVuSans-75" x="121.839844"/>
      <use xlink:href="#DejaVuSans-74" x="185.21875"/>
      <use xlink:href="#DejaVuSans-20" x="224.427734"/>
      <use xlink:href="#DejaVuSans-28" x="256.214844"/>
      <use xlink:href="#DejaVuSans-56" x="295.228516"/>
      <use xlink:href="#DejaVuSans-29" x="363.636719"/>
      <use xlink:href="#DejaVuSans-2c" x="402.650391"/>
      <use xlink:href="#DejaVuSans-20" x="434.4375"/>
      <use xlink:href="#DejaVuSans-56" x="466.224609"/>
      <use xlink:href="#DejaVuSans-69" x="532.382812"/>
      <use xlink:href="#DejaVuSans-6e" x="560.166016"/>
      <use xlink:href="#DejaVuSans-20" x="623.544922"/>
      <use xlink:href="#DejaVuSans-28" x="655.332031"/>
      <use xlink:href="#DejaVuSans-56" x="694.345703"/>
      <use xlink:href="#DejaVuSans-29" x="762.753906"/>
     </g>
    </g>
   </g>
   <g id="line2d_15">
    <path d="M 66.376477 21.078784 
L 66.792035 20.379165 
L 67.207593 19.970862 
L 67.856902 19.542484 
L 68.506211 19.296 
L 69.15552 21.64373 
L 69.804829 33.827933 
L 70.454138 64.425551 
L 71.103447 115.458159 
L 71.752757 183.964792 
L 72.402066 240.589773 
L 72.934499 257.560635 
L 73.064361 258.637415 
L 73.324085 259.735036 
L 73.843532 260.298041 
L 99.166586 260.300646 
L 137.865408 260.375972 
L 138.254994 260.626533 
L 140.722368 261.139197 
L 141.371677 259.135867 
L 142.020986 249.657172 
L 142.670295 227.821033 
L 143.319605 191.554825 
L 145.267532 46.284527 
L 145.916841 29.695634 
L 146.56615 23.774918 
L 147.215459 21.894581 
L 147.864768 21.322941 
L 148.514077 21.15157 
L 150.462005 21.080707 
L 196.303226 20.944612 
L 196.692812 20.33392 
L 197.212259 19.860808 
L 197.861568 19.459654 
L 198.510877 19.407966 
L 199.160186 23.118424 
L 199.809495 38.826747 
L 200.458805 74.016672 
L 201.108114 129.38169 
L 201.757423 199.18372 
L 202.406732 248.294232 
L 202.796317 257.291204 
L 202.926179 258.472278 
L 203.185903 259.678068 
L 203.70535 260.297649 
L 225.781859 260.300646 
L 267.727226 260.375972 
L 268.116812 260.626533 
L 270.584186 261.139197 
L 271.233495 259.135867 
L 271.882805 249.657172 
L 272.532114 227.821033 
L 273.181423 191.554825 
L 275.12935 46.284527 
L 275.778659 29.695634 
L 276.427968 23.774918 
L 277.077277 21.894581 
L 277.726586 21.322941 
L 278.375895 21.15157 
L 280.323823 21.080707 
L 326.165045 20.944612 
L 326.55463 20.33392 
L 327.074077 19.860808 
L 327.723386 19.459654 
L 328.372695 19.407966 
L 329.022005 23.118424 
L 329.671314 38.826747 
L 330.320623 74.016672 
L 330.969932 129.38169 
L 331.619241 199.18372 
L 332.26855 248.294232 
L 332.658135 257.291204 
L 332.787997 258.472278 
L 333.047721 259.678068 
L 333.567168 260.297649 
L 355.643677 260.300646 
L 391.031023 260.300646 
L 391.031023 260.300646 
" clip-path="url(#p827e78288c)" style="fill: none; stroke: #1f77b4; stroke-width: 1.5; stroke-linecap: square"/>
   </g>
   <g id="line2d_16">
    <path d="M 66.376477 260.300648 
L 72.934499 21.078786 
L 137.800477 21.078786 
L 144.358499 260.300648 
L 196.238295 260.300648 
L 202.796317 21.078786 
L 267.662295 21.078786 
L 274.220317 260.300648 
L 326.100114 260.300648 
L 332.658135 21.078786 
L 391.031023 21.078786 
L 391.031023 21.078786 
" clip-path="url(#p827e78288c)" style="fill: none; stroke: #ff7f0e; stroke-width: 1.5; stroke-linecap: square"/>
   </g>
   <g id="line2d_17">
    <path d="M 66.376477 21.078784 
L 66.792035 20.379165 
L 67.207593 19.970862 
L 67.856902 19.542484 
L 68.506211 19.296 
L 69.15552 21.64373 
L 69.804829 33.827933 
L 70.454138 64.425551 
L 71.103447 115.458159 
L 71.752757 183.964792 
L 72.402066 240.589773 
L 72.934499 257.560635 
L 73.064361 258.637415 
L 73.324085 259.735036 
L 73.843532 260.298041 
L 99.166586 260.300646 
L 137.865408 260.375972 
L 138.254994 260.626533 
L 140.722368 261.139197 
L 141.371677 259.135867 
L 142.020986 249.657172 
L 142.670295 227.821033 
L 143.319605 191.554825 
L 145.267532 46.284527 
L 145.916841 29.695634 
L 146.56615 23.774918 
L 147.215459 21.894581 
L 147.864768 21.322941 
L 148.514077 21.15157 
L 150.462005 21.080707 
L 196.303226 20.944612 
L 196.692812 20.33392 
L 197.212259 19.860808 
L 197.861568 19.459654 
L 198.510877 19.407966 
L 199.160186 23.118424 
L 199.809495 38.826747 
L 200.458805 74.016672 
L 201.108114 129.38169 
L 201.757423 199.18372 
L 202.406732 248.294232 
L 202.796317 257.291204 
L 202.926179 258.472278 
L 203.185903 259.678068 
L 203.70535 260.297649 
L 225.781859 260.300646 
L 267.727226 260.375972 
L 268.116812 260.626533 
L 270.584186 261.139197 
L 271.233495 259.135867 
L 271.882805 249.657172 
L 272.532114 227.821033 
L 273.181423 191.554825 
L 275.12935 46.284527 
L 275.778659 29.695634 
L 276.427968 23.774918 
L 277.077277 21.894581 
L 277.726586 21.322941 
L 278.375895 21.15157 
L 280.323823 21.080707 
L 326.165045 20.944612 
L 326.55463 20.33392 
L 327.074077 19.860808 
L 327.723386 19.459654 
L 328.372695 19.407966 
L 329.022005 23.118424 
L 329.671314 38.826747 
L 330.320623 74.016672 
L 330.969932 129.38169 
L 331.619241 199.18372 
L 332.26855 248.294232 
L 332.658135 257.291204 
L 332.787997 258.472278 
L 333.047721 259.678068 
L 333.567168 260.297649 
L 355.643677 260.300646 
L 391.031023 260.300646 
L 391.031023 260.300646 
" clip-path="url(#p827e78288c)" style="fill: none; stroke: #2ca02c; stroke-width: 1.5; stroke-linecap: square"/>
   </g>
   <g id="line2d_18">
    <path d="M 66.376477 260.300648 
L 72.934499 21.078786 
L 137.800477 21.078786 
L 144.358499 260.300648 
L 196.238295 260.300648 
L 202.796317 21.078786 
L 267.662295 21.078786 
L 274.220317 260.300648 
L 326.100114 260.300648 
L 332.658135 21.078786 
L 391.031023 21.078786 
L 391.031023 21.078786 
" clip-path="url(#p827e78288c)" style="fill: none; stroke: #d62728; stroke-width: 1.5; stroke-linecap: square"/>
   </g>
   <g id="line2d_19">
    <path d="M 66.376477 21.078784 
L 66.792035 20.379165 
L 67.207593 19.970862 
L 67.856902 19.542484 
L 68.506211 19.296 
L 69.15552 21.64373 
L 69.804829 33.827933 
L 70.454138 64.425551 
L 71.103447 115.458159 
L 71.752757 183.964792 
L 72.402066 240.589773 
L 72.934499 257.560635 
L 73.064361 258.637415 
L 73.324085 259.735036 
L 73.843532 260.298041 
L 99.166586 260.300646 
L 137.865408 260.375972 
L 138.254994 260.626533 
L 140.722368 261.139197 
L 141.371677 259.135867 
L 142.020986 249.657172 
L 142.670295 227.821033 
L 143.319605 191.554825 
L 145.267532 46.284527 
L 145.916841 29.695634 
L 146.56615 23.774918 
L 147.215459 21.894581 
L 147.864768 21.322941 
L 148.514077 21.15157 
L 150.462005 21.080707 
L 196.303226 20.944612 
L 196.692812 20.33392 
L 197.212259 19.860808 
L 197.861568 19.459654 
L 198.510877 19.407966 
L 199.160186 23.118424 
L 199.809495 38.826747 
L 200.458805 74.016672 
L 201.108114 129.38169 
L 201.757423 199.18372 
L 202.406732 248.294232 
L 202.796317 257.291204 
L 202.926179 258.472278 
L 203.185903 259.678068 
L 203.70535 260.297649 
L 225.781859 260.300646 
L 267.727226 260.375972 
L 268.116812 260.626533 
L 270.584186 261.139197 
L 271.233495 259.135867 
L 271.882805 249.657172 
L 272.532114 227.821033 
L 273.181423 191.554825 
L 275.12935 46.284527 
L 275.778659 29.695634 
L 276.427968 23.774918 
L 277.077277 21.894581 
L 277.726586 21.322941 
L 278.375895 21.15157 
L 280.323823 21.080707 
L 326.165045 20.944612 
L 326.55463 20.33392 
L 327.074077 19.860808 
L 327.723386 19.459654 
L 328.372695 19.407966 
L 329.022005 23.118424 
L 329.671314 38.826747 
L 330.320623 74.016672 
L 330.969932 129.38169 
L 331.619241 199.18372 
L 332.26855 248.294232 
L 332.658135 257.291204 
L 332.787997 258.472278 
L 333.047721 259.678068 
L 333.567168 260.297649 
L 355.643677 260.300646 
L 391.031023 260.300646 
L 391.031023 260.300646 
" clip-path="url(#p827e78288c)" style="fill: none; stroke: #9467bd; stroke-width: 1.5; stroke-linecap: square"/>
   </g>
   <g id="line2d_20">
    <path d="M 66.376477 260.300648 
L 72.934499 21.078786 
L 137.800477 21.078786 
L 144.358499 260.300648 
L 196.238295 260.300648 
L 202.796317 21.078786 
L 267.662295 21.078786 
L 274.220317 260.300648 
L 326.100114 260.300648 
L 332.658135 21.078786 
L 391.031023 21.078786 
L 391.031023 21.078786 
" clip-path="url(#p827e78288c)" style="fill: none; stroke: #8c564b; stroke-width: 1.5; stroke-linecap: square"/>
   </g>
   <g id="line2d_21">
    <path d="M 66.376477 21.078784 
L 66.792035 20.353677 
L 67.207593 19.89904 
L 67.856902 19.421237 
L 68.506211 19.500678 
L 69.15552 22.985735 
L 69.804829 35.639848 
L 70.454138 64.380575 
L 71.103447 111.138003 
L 72.402066 229.490122 
L 73.064361 254.983989 
L 73.324085 257.903393 
L 73.843532 259.985252 
L 74.492841 260.295907 
L 90.076259 260.300646 
L 137.865408 260.378914 
L 138.254994 260.671517 
L 140.073059 261.178398 
L 140.722368 260.860306 
L 141.371677 257.697702 
L 142.020986 247.188988 
L 142.670295 225.118461 
L 143.319605 190.106131 
L 145.267532 53.372499 
L 145.916841 34.616681 
L 146.56615 26.381725 
L 147.215459 23.092426 
L 147.864768 21.833768 
L 148.514077 21.360478 
L 149.812695 21.117829 
L 153.70855 21.078897 
L 196.238295 21.078794 
L 196.692812 20.304468 
L 197.212259 19.774391 
L 197.861568 19.346465 
L 198.510877 19.819237 
L 199.160186 24.735082 
L 199.809495 40.455778 
L 200.458805 73.226028 
L 201.108114 123.749908 
L 201.757423 187.417375 
L 202.406732 238.274385 
L 202.926179 254.866006 
L 203.185903 257.848888 
L 203.70535 259.977715 
L 204.354659 260.295786 
L 219.938077 260.300646 
L 267.727226 260.378914 
L 268.116812 260.671517 
L 269.934877 261.178398 
L 270.584186 260.860306 
L 271.233495 257.697702 
L 271.882805 247.188988 
L 272.532114 225.118461 
L 273.181423 190.106131 
L 275.12935 53.372499 
L 275.778659 34.616681 
L 276.427968 26.381725 
L 277.077277 23.092426 
L 277.726586 21.833768 
L 278.375895 21.360478 
L 279.674514 21.117829 
L 283.570368 21.078897 
L 326.100114 21.078794 
L 326.55463 20.304468 
L 327.074077 19.774391 
L 327.723386 19.346465 
L 328.372695 19.819237 
L 329.022005 24.735082 
L 329.671314 40.455778 
L 330.320623 73.226028 
L 330.969932 123.749908 
L 331.619241 187.417375 
L 332.26855 238.274385 
L 332.787997 254.866006 
L 333.047721 257.848888 
L 333.567168 259.977715 
L 334.216477 260.295786 
L 349.799895 260.300646 
L 391.031023 260.300646 
L 391.031023 260.300646 
" clip-path="url(#p827e78288c)" style="fill: none; stroke: #e377c2; stroke-width: 1.5; stroke-linecap: square"/>
   </g>
   <g id="line2d_22">
    <path d="M 66.376477 260.300648 
L 72.934499 21.078786 
L 137.800477 21.078786 
L 144.358499 260.300648 
L 196.238295 260.300648 
L 202.796317 21.078786 
L 267.662295 21.078786 
L 274.220317 260.300648 
L 326.100114 260.300648 
L 332.658135 21.078786 
L 391.031023 21.078786 
L 391.031023 21.078786 
" clip-path="url(#p827e78288c)" style="fill: none; stroke: #7f7f7f; stroke-width: 1.5; stroke-linecap: square"/>
   </g>
   <g id="line2d_23">
    <path d="M 66.376477 21.078784 
L 66.792035 20.353677 
L 67.207593 19.89904 
L 67.856902 19.421237 
L 68.506211 19.500678 
L 69.15552 22.985735 
L 69.804829 35.639848 
L 70.454138 64.380575 
L 71.103447 111.138003 
L 72.402066 229.490122 
L 73.064361 254.983989 
L 73.324085 257.903393 
L 73.843532 259.985252 
L 74.492841 260.295907 
L 90.076259 260.300646 
L 137.865408 260.378914 
L 138.254994 260.671517 
L 140.073059 261.178398 
L 140.722368 260.860306 
L 141.371677 257.697702 
L 142.020986 247.188988 
L 142.670295 225.118461 
L 143.319605 190.106131 
L 145.267532 53.372499 
L 145.916841 34.616681 
L 146.56615 26.381725 
L 147.215459 23.092426 
L 147.864768 21.833768 
L 148.514077 21.360478 
L 149.812695 21.117829 
L 153.70855 21.078897 
L 196.238295 21.078794 
L 196.692812 20.304468 
L 197.212259 19.774391 
L 197.861568 19.346465 
L 198.510877 19.819237 
L 199.160186 24.735082 
L 199.809495 40.455778 
L 200.458805 73.226028 
L 201.108114 123.749908 
L 201.757423 187.417375 
L 202.406732 238.274385 
L 202.926179 254.866006 
L 203.185903 257.848888 
L 203.70535 259.977715 
L 204.354659 260.295786 
L 219.938077 260.300646 
L 267.727226 260.378914 
L 268.116812 260.671517 
L 269.934877 261.178398 
L 270.584186 260.860306 
L 271.233495 257.697702 
L 271.882805 247.188988 
L 272.532114 225.118461 
L 273.181423 190.106131 
L 275.12935 53.372499 
L 275.778659 34.616681 
L 276.427968 26.381725 
L 277.077277 23.092426 
L 277.726586 21.833768 
L 278.375895 21.360478 
L 279.674514 21.117829 
L 283.570368 21.078897 
L 326.100114 21.078794 
L 326.55463 20.304468 
L 327.074077 19.774391 
L 327.723386 19.346465 
L 328.372695 19.819237 
L 329.022005 24.735082 
L 329.671314 40.455778 
L 330.320623 73.226028 
L 330.969932 123.749908 
L 331.619241 187.417375 
L 332.26855 238.274385 
L 332.787997 254.866006 
L 333.047721 257.848888 
L 333.567168 259.977715 
L 334.216477 260.295786 
L 349.799895 260.300646 
L 391.031023 260.300646 
L 391.031023 260.300646 
" clip-path="url(#p827e78288c)" style="fill: none; stroke: #bcbd22; stroke-width: 1.5; stroke-linecap: square"/>
   </g>
   <g id="line2d_24">
    <path d="M 66.376477 260.300648 
L 72.934499 21.078786 
L 137.800477 21.078786 
L 144.358499 260.300648 
L 196.238295 260.300648 
L 202.796317 21.078786 
L 267.662295 21.078786 
L 274.220317 260.300648 
L 326.100114 260.300648 
L 332.658135 21.078786 
L 391.031023 21.078786 
L 391.031023 21.078786 
" clip-path="url(#p827e78288c)" style="fill: none; stroke: #17becf; stroke-width: 1.5; stroke-linecap: square"/>
   </g>
   <g id="line2d_25">
    <path d="M 66.376477 21.078784 
L 66.792035 20.353677 
L 67.207593 19.89904 
L 67.856902 19.421237 
L 68.506211 19.500678 
L 69.15552 22.985735 
L 69.804829 35.639848 
L 70.454138 64.380575 
L 71.103447 111.138003 
L 72.402066 229.490122 
L 73.064361 254.983989 
L 73.324085 257.903393 
L 73.843532 259.985252 
L 74.492841 260.295907 
L 90.076259 260.300646 
L 137.865408 260.378914 
L 138.254994 260.671517 
L 140.073059 261.178398 
L 140.722368 260.860306 
L 141.371677 257.697702 
L 142.020986 247.188988 
L 142.670295 225.118461 
L 143.319605 190.106131 
L 145.267532 53.372499 
L 145.916841 34.616681 
L 146.56615 26.381725 
L 147.215459 23.092426 
L 147.864768 21.833768 
L 148.514077 21.360478 
L 149.812695 21.117829 
L 153.70855 21.078897 
L 196.238295 21.078794 
L 196.692812 20.304468 
L 197.212259 19.774391 
L 197.861568 19.346465 
L 198.510877 19.819237 
L 199.160186 24.735082 
L 199.809495 40.455778 
L 200.458805 73.226028 
L 201.108114 123.749908 
L 201.757423 187.417375 
L 202.406732 238.274385 
L 202.926179 254.866006 
L 203.185903 257.848888 
L 203.70535 259.977715 
L 204.354659 260.295786 
L 219.938077 260.300646 
L 267.727226 260.378914 
L 268.116812 260.671517 
L 269.934877 261.178398 
L 270.584186 260.860306 
L 271.233495 257.697702 
L 271.882805 247.188988 
L 272.532114 225.118461 
L 273.181423 190.106131 
L 275.12935 53.372499 
L 275.778659 34.616681 
L 276.427968 26.381725 
L 277.077277 23.092426 
L 277.726586 21.833768 
L 278.375895 21.360478 
L 279.674514 21.117829 
L 283.570368 21.078897 
L 326.100114 21.078794 
L 326.55463 20.304468 
L 327.074077 19.774391 
L 327.723386 19.346465 
L 328.372695 19.819237 
L 329.022005 24.735082 
L 329.671314 40.455778 
L 330.320623 73.226028 
L 330.969932 123.749908 
L 331.619241 187.417375 
L 332.26855 238.274385 
L 332.787997 254.866006 
L 333.047721 257.848888 
L 333.567168 259.977715 
L 334.216477 260.295786 
L 349.799895 260.300646 
L 391.031023 260.300646 
L 391.031023 260.300646 
" clip-path="url(#p827e78288c)" style="fill: none; stroke: #1f77b4; stroke-width: 1.5; stroke-linecap: square"/>
   </g>
   <g id="line2d_26">
    <path d="M 66.376477 260.300648 
L 72.934499 21.078786 
L 137.800477 21.078786 
L 144.358499 260.300648 
L 196.238295 260.300648 
L 202.796317 21.078786 
L 267.662295 21.078786 
L 274.220317 260.300648 
L 326.100114 260.300648 
L 332.658135 21.078786 
L 391.031023 21.078786 
L 391.031023 21.078786 
" clip-path="url(#p827e78288c)" style="fill: none; stroke: #ff7f0e; stroke-width: 1.5; stroke-linecap: square"/>
   </g>
   <g id="line2d_27">
    <path d="M 66.376477 21.078966 
L 66.792035 20.330308 
L 67.207593 19.828885 
L 67.856902 19.392053 
L 68.506211 20.298883 
L 69.15552 25.325533 
L 69.804829 38.231915 
L 70.454138 64.238882 
L 71.103447 105.529389 
L 72.402066 212.721798 
L 73.064361 245.660105 
L 73.324085 251.777079 
L 73.843532 257.769814 
L 74.492841 259.844626 
L 75.14215 260.22049 
L 76.440768 260.298195 
L 112.802077 260.300635 
L 137.865408 260.383182 
L 138.254994 260.735773 
L 139.42375 261.216 
L 140.073059 261.202579 
L 140.722368 259.752021 
L 141.371677 254.769875 
L 142.020986 242.88836 
L 142.670295 220.207272 
L 143.319605 185.692326 
L 144.748085 84.96587 
L 145.267532 59.478767 
L 145.916841 40.034685 
L 146.56615 30.003803 
L 147.215459 25.177191 
L 147.864768 22.938039 
L 148.514077 21.917515 
L 149.163386 21.456215 
L 150.462005 21.155017 
L 153.059241 21.082052 
L 196.303226 20.943223 
L 196.692812 20.27704 
L 197.212259 19.692112 
L 197.861568 19.401313 
L 198.510877 20.930925 
L 199.160186 27.341363 
L 199.809495 42.63043 
L 200.458805 71.987479 
L 201.108114 116.454468 
L 202.406732 222.134466 
L 202.926179 245.596099 
L 203.185903 251.738488 
L 203.70535 257.757723 
L 204.354659 259.842382 
L 205.003968 260.220094 
L 206.302586 260.298183 
L 242.663895 260.300635 
L 267.727226 260.383182 
L 268.116812 260.735773 
L 269.285568 261.216 
L 269.934877 261.202579 
L 270.584186 259.752021 
L 271.233495 254.769875 
L 271.882805 242.88836 
L 272.532114 220.207272 
L 273.181423 185.692326 
L 274.609903 84.96587 
L 275.12935 59.478767 
L 275.778659 40.034685 
L 276.427968 30.003803 
L 277.077277 25.177191 
L 277.726586 22.938039 
L 278.375895 21.917515 
L 279.025205 21.456215 
L 280.323823 21.155017 
L 282.921059 21.082052 
L 326.165045 20.943223 
L 326.55463 20.27704 
L 327.074077 19.692112 
L 327.723386 19.401313 
L 328.372695 20.930925 
L 329.022005 27.341363 
L 329.671314 42.63043 
L 330.320623 71.987479 
L 330.969932 116.454468 
L 332.26855 222.134466 
L 332.787997 245.596099 
L 333.047721 251.738488 
L 333.567168 257.757723 
L 334.216477 259.842382 
L 334.865786 260.220094 
L 336.164405 260.298183 
L 372.525714 260.300635 
L 391.031023 260.300634 
L 391.031023 260.300634 
" clip-path="url(#p827e78288c)" style="fill: none; stroke: #2ca02c; stroke-width: 1.5; stroke-linecap: square"/>
   </g>
   <g id="line2d_28">
    <path d="M 66.376477 260.300648 
L 72.934499 21.078786 
L 137.800477 21.078786 
L 144.358499 260.300648 
L 196.238295 260.300648 
L 202.796317 21.078786 
L 267.662295 21.078786 
L 274.220317 260.300648 
L 326.100114 260.300648 
L 332.658135 21.078786 
L 391.031023 21.078786 
L 391.031023 21.078786 
" clip-path="url(#p827e78288c)" style="fill: none; stroke: #d62728; stroke-width: 1.5; stroke-linecap: square"/>
   </g>
   <g id="line2d_29">
    <path d="M 66.376477 21.078966 
L 66.792035 20.330308 
L 67.207593 19.828885 
L 67.856902 19.392053 
L 68.506211 20.298883 
L 69.15552 25.325533 
L 69.804829 38.231915 
L 70.454138 64.238882 
L 71.103447 105.529389 
L 72.402066 212.721798 
L 73.064361 245.660105 
L 73.324085 251.777079 
L 73.843532 257.769814 
L 74.492841 259.844626 
L 75.14215 260.22049 
L 76.440768 260.298195 
L 112.802077 260.300635 
L 137.865408 260.383182 
L 138.254994 260.735773 
L 139.42375 261.216 
L 140.073059 261.202579 
L 140.722368 259.752021 
L 141.371677 254.769875 
L 142.020986 242.88836 
L 142.670295 220.207272 
L 143.319605 185.692326 
L 144.748085 84.96587 
L 145.267532 59.478767 
L 145.916841 40.034685 
L 146.56615 30.003803 
L 147.215459 25.177191 
L 147.864768 22.938039 
L 148.514077 21.917515 
L 149.163386 21.456215 
L 150.462005 21.155017 
L 153.059241 21.082052 
L 196.303226 20.943223 
L 196.692812 20.27704 
L 197.212259 19.692112 
L 197.861568 19.401313 
L 198.510877 20.930925 
L 199.160186 27.341363 
L 199.809495 42.63043 
L 200.458805 71.987479 
L 201.108114 116.454468 
L 202.406732 222.134466 
L 202.926179 245.596099 
L 203.185903 251.738488 
L 203.70535 257.757723 
L 204.354659 259.842382 
L 205.003968 260.220094 
L 206.302586 260.298183 
L 242.663895 260.300635 
L 267.727226 260.383182 
L 268.116812 260.735773 
L 269.285568 261.216 
L 269.934877 261.202579 
L 270.584186 259.752021 
L 271.233495 254.769875 
L 271.882805 242.88836 
L 272.532114 220.207272 
L 273.181423 185.692326 
L 274.609903 84.96587 
L 275.12935 59.478767 
L 275.778659 40.034685 
L 276.427968 30.003803 
L 277.077277 25.177191 
L 277.726586 22.938039 
L 278.375895 21.917515 
L 279.025205 21.456215 
L 280.323823 21.155017 
L 282.921059 21.082052 
L 326.165045 20.943223 
L 326.55463 20.27704 
L 327.074077 19.692112 
L 327.723386 19.401313 
L 328.372695 20.930925 
L 329.022005 27.341363 
L 329.671314 42.63043 
L 330.320623 71.987479 
L 330.969932 116.454468 
L 332.26855 222.134466 
L 332.787997 245.596099 
L 333.047721 251.738488 
L 333.567168 257.757723 
L 334.216477 259.842382 
L 334.865786 260.220094 
L 336.164405 260.298183 
L 372.525714 260.300635 
L 391.031023 260.300634 
L 391.031023 260.300634 
" clip-path="url(#p827e78288c)" style="fill: none; stroke: #9467bd; stroke-width: 1.5; stroke-linecap: square"/>
   </g>
   <g id="line2d_30">
    <path d="M 66.376477 260.300648 
L 72.934499 21.078786 
L 137.800477 21.078786 
L 144.358499 260.300648 
L 196.238295 260.300648 
L 202.796317 21.078786 
L 267.662295 21.078786 
L 274.220317 260.300648 
L 326.100114 260.300648 
L 332.658135 21.078786 
L 391.031023 21.078786 
L 391.031023 21.078786 
" clip-path="url(#p827e78288c)" style="fill: none; stroke: #8c564b; stroke-width: 1.5; stroke-linecap: square"/>
   </g>
   <g id="line2d_31">
    <path d="M 66.376477 21.078966 
L 66.792035 20.330308 
L 67.207593 19.828885 
L 67.856902 19.392053 
L 68.506211 20.298883 
L 69.15552 25.325533 
L 69.804829 38.231915 
L 70.454138 64.238882 
L 71.103447 105.529389 
L 72.402066 212.721798 
L 73.064361 245.660105 
L 73.324085 251.777079 
L 73.843532 257.769814 
L 74.492841 259.844626 
L 75.14215 260.22049 
L 76.440768 260.298195 
L 112.802077 260.300635 
L 137.865408 260.383182 
L 138.254994 260.735773 
L 139.42375 261.216 
L 140.073059 261.202579 
L 140.722368 259.752021 
L 141.371677 254.769875 
L 142.020986 242.88836 
L 142.670295 220.207272 
L 143.319605 185.692326 
L 144.748085 84.96587 
L 145.267532 59.478767 
L 145.916841 40.034685 
L 146.56615 30.003803 
L 147.215459 25.177191 
L 147.864768 22.938039 
L 148.514077 21.917515 
L 149.163386 21.456215 
L 150.462005 21.155017 
L 153.059241 21.082052 
L 196.303226 20.943223 
L 196.692812 20.27704 
L 197.212259 19.692112 
L 197.861568 19.401313 
L 198.510877 20.930925 
L 199.160186 27.341363 
L 199.809495 42.63043 
L 200.458805 71.987479 
L 201.108114 116.454468 
L 202.406732 222.134466 
L 202.926179 245.596099 
L 203.185903 251.738488 
L 203.70535 257.757723 
L 204.354659 259.842382 
L 205.003968 260.220094 
L 206.302586 260.298183 
L 242.663895 260.300635 
L 267.727226 260.383182 
L 268.116812 260.735773 
L 269.285568 261.216 
L 269.934877 261.202579 
L 270.584186 259.752021 
L 271.233495 254.769875 
L 271.882805 242.88836 
L 272.532114 220.207272 
L 273.181423 185.692326 
L 274.609903 84.96587 
L 275.12935 59.478767 
L 275.778659 40.034685 
L 276.427968 30.003803 
L 277.077277 25.177191 
L 277.726586 22.938039 
L 278.375895 21.917515 
L 279.025205 21.456215 
L 280.323823 21.155017 
L 282.921059 21.082052 
L 326.165045 20.943223 
L 326.55463 20.27704 
L 327.074077 19.692112 
L 327.723386 19.401313 
L 328.372695 20.930925 
L 329.022005 27.341363 
L 329.671314 42.63043 
L 330.320623 71.987479 
L 330.969932 116.454468 
L 332.26855 222.134466 
L 332.787997 245.596099 
L 333.047721 251.738488 
L 333.567168 257.757723 
L 334.216477 259.842382 
L 334.865786 260.220094 
L 336.164405 260.298183 
L 372.525714 260.300635 
L 391.031023 260.300634 
L 391.031023 260.300634 
" clip-path="url(#p827e78288c)" style="fill: none; stroke: #e377c2; stroke-width: 1.5; stroke-linecap: square"/>
   </g>
   <g id="line2d_32">
    <path d="M 66.376477 260.300648 
L 72.934499 21.078786 
L 137.800477 21.078786 
L 144.358499 260.300648 
L 196.238295 260.300648 
L 202.796317 21.078786 
L 267.662295 21.078786 
L 274.220317 260.300648 
L 326.100114 260.300648 
L 332.658135 21.078786 
L 391.031023 21.078786 
L 391.031023 21.078786 
" clip-path="url(#p827e78288c)" style="fill: none; stroke: #7f7f7f; stroke-width: 1.5; stroke-linecap: square"/>
   </g>
   <g id="patch_3">
    <path d="M 50.14375 273.312 
L 50.14375 7.2 
" style="fill: none; stroke: #000000; stroke-width: 0.8; stroke-linejoin: miter; stroke-linecap: square"/>
   </g>
   <g id="patch_4">
    <path d="M 407.26375 273.312 
L 407.26375 7.2 
" style="fill: none; stroke: #000000; stroke-width: 0.8; stroke-linejoin: miter; stroke-linecap: square"/>
   </g>
   <g id="patch_5">
    <path d="M 50.14375 273.312 
L 407.26375 273.312 
" style="fill: none; stroke: #000000; stroke-width: 0.8; stroke-linejoin: miter; stroke-linecap: square"/>
   </g>
   <g id="patch_6">
    <path d="M 50.14375 7.2 
L 407.26375 7.2 
" style="fill: none; stroke: #000000; stroke-width: 0.8; stroke-linejoin: miter; stroke-linecap: square"/>
   </g>
   <g id="legend_1">
    <g id="patch_7">
     <path d="M 423.54855 274.40625 
L 615.889175 274.40625 
Q 617.889175 274.40625 617.889175 272.40625 
L 617.889175 9.2 
Q 617.889175 7.2 615.889175 7.2 
L 423.54855 7.2 
Q 421.54855 7.2 421.54855 9.2 
L 421.54855 272.40625 
Q 421.54855 274.40625 423.54855 274.40625 
z
" style="fill: #ffffff; opacity: 0.8; stroke: #cccccc; stroke-linejoin: miter"/>
    </g>
    <g id="line2d_33">
     <path d="M 425.54855 15.298437 
L 435.54855 15.298437 
L 445.54855 15.298437 
" style="fill: none; stroke: #1f77b4; stroke-width: 1.5; stroke-linecap: square"/>
    </g>
    <g id="text_18">
     <!-- corner = ss, temperature = -40 -->
     <g transform="translate(453.54855 18.798437) scale(0.1 -0.1)">
      <defs>
       <path id="DejaVuSans-63" d="M 3122 3366 
L 3122 2828 
Q 2878 2963 2633 3030 
Q 2388 3097 2138 3097 
Q 1578 3097 1268 2742 
Q 959 2388 959 1747 
Q 959 1106 1268 751 
Q 1578 397 2138 397 
Q 2388 397 2633 464 
Q 2878 531 3122 666 
L 3122 134 
Q 2881 22 2623 -34 
Q 2366 -91 2075 -91 
Q 1284 -91 818 406 
Q 353 903 353 1747 
Q 353 2603 823 3093 
Q 1294 3584 2113 3584 
Q 2378 3584 2631 3529 
Q 2884 3475 3122 3366 
z
" transform="scale(0.015625)"/>
       <path id="DejaVuSans-72" d="M 2631 2963 
Q 2534 3019 2420 3045 
Q 2306 3072 2169 3072 
Q 1681 3072 1420 2755 
Q 1159 2438 1159 1844 
L 1159 0 
L 581 0 
L 581 3500 
L 1159 3500 
L 1159 2956 
Q 1341 3275 1631 3429 
Q 1922 3584 2338 3584 
Q 2397 3584 2469 3576 
Q 2541 3569 2628 3553 
L 2631 2963 
z
" transform="scale(0.015625)"/>
       <path id="DejaVuSans-3d" d="M 678 2906 
L 4684 2906 
L 4684 2381 
L 678 2381 
L 678 2906 
z
M 678 1631 
L 4684 1631 
L 4684 1100 
L 678 1100 
L 678 1631 
z
" transform="scale(0.015625)"/>
       <path id="DejaVuSans-70" d="M 1159 525 
L 1159 -1331 
L 581 -1331 
L 581 3500 
L 1159 3500 
L 1159 2969 
Q 1341 3281 1617 3432 
Q 1894 3584 2278 3584 
Q 2916 3584 3314 3078 
Q 3713 2572 3713 1747 
Q 3713 922 3314 415 
Q 2916 -91 2278 -91 
Q 1894 -91 1617 61 
Q 1341 213 1159 525 
z
M 3116 1747 
Q 3116 2381 2855 2742 
Q 2594 3103 2138 3103 
Q 1681 3103 1420 2742 
Q 1159 2381 1159 1747 
Q 1159 1113 1420 752 
Q 1681 391 2138 391 
Q 2594 391 2855 752 
Q 3116 1113 3116 1747 
z
" transform="scale(0.015625)"/>
       <path id="DejaVuSans-61" d="M 2194 1759 
Q 1497 1759 1228 1600 
Q 959 1441 959 1056 
Q 959 750 1161 570 
Q 1363 391 1709 391 
Q 2188 391 2477 730 
Q 2766 1069 2766 1631 
L 2766 1759 
L 2194 1759 
z
M 3341 1997 
L 3341 0 
L 2766 0 
L 2766 531 
Q 2569 213 2275 61 
Q 1981 -91 1556 -91 
Q 1019 -91 701 211 
Q 384 513 384 1019 
Q 384 1609 779 1909 
Q 1175 2209 1959 2209 
L 2766 2209 
L 2766 2266 
Q 2766 2663 2505 2880 
Q 2244 3097 1772 3097 
Q 1472 3097 1187 3025 
Q 903 2953 641 2809 
L 641 3341 
Q 956 3463 1253 3523 
Q 1550 3584 1831 3584 
Q 2591 3584 2966 3190 
Q 3341 2797 3341 1997 
z
" transform="scale(0.015625)"/>
       <path id="DejaVuSans-2d" d="M 313 2009 
L 1997 2009 
L 1997 1497 
L 313 1497 
L 313 2009 
z
" transform="scale(0.015625)"/>
      </defs>
      <use xlink:href="#DejaVuSans-63"/>
      <use xlink:href="#DejaVuSans-6f" x="54.980469"/>
      <use xlink:href="#DejaVuSans-72" x="116.162109"/>
      <use xlink:href="#DejaVuSans-6e" x="155.525391"/>
      <use xlink:href="#DejaVuSans-65" x="218.904297"/>
      <use xlink:href="#DejaVuSans-72" x="280.427734"/>
      <use xlink:href="#DejaVuSans-20" x="321.541016"/>
      <use xlink:href="#DejaVuSans-3d" x="353.328125"/>
      <use xlink:href="#DejaVuSans-20" x="437.117188"/>
      <use xlink:href="#DejaVuSans-73" x="468.904297"/>
      <use xlink:href="#DejaVuSans-73" x="521.003906"/>
      <use xlink:href="#DejaVuSans-2c" x="573.103516"/>
      <use xlink:href="#DejaVuSans-20" x="604.890625"/>
      <use xlink:href="#DejaVuSans-74" x="636.677734"/>
      <use xlink:href="#DejaVuSans-65" x="675.886719"/>
      <use xlink:href="#DejaVuSans-6d" x="737.410156"/>
      <use xlink:href="#DejaVuSans-70" x="834.822266"/>
      <use xlink:href="#DejaVuSans-65" x="898.298828"/>
      <use xlink:href="#DejaVuSans-72" x="959.822266"/>
      <use xlink:href="#DejaVuSans-61" x="1000.935547"/>
      <use xlink:href="#DejaVuSans-74" x="1062.214844"/>
      <use xlink:href="#DejaVuSans-75" x="1101.423828"/>
      <use xlink:href="#DejaVuSans-72" x="1164.802734"/>
      <use xlink:href="#DejaVuSans-65" x="1203.666016"/>
      <use xlink:href="#DejaVuSans-20" x="1265.189453"/>
      <use xlink:href="#DejaVuSans-3d" x="1296.976562"/>
      <use xlink:href="#DejaVuSans-20" x="1380.765625"/>
      <use xlink:href="#DejaVuSans-2d" x="1412.552734"/>
      <use xlink:href="#DejaVuSans-34" x="1448.636719"/>
      <use xlink:href="#DejaVuSans-30" x="1512.259766"/>
     </g>
    </g>
    <g id="line2d_34">
     <path d="M 425.54855 29.976562 
L 435.54855 29.976562 
L 445.54855 29.976562 
" style="fill: none; stroke: #ff7f0e; stroke-width: 1.5; stroke-linecap: square"/>
    </g>
    <g id="text_19">
     <!-- corner = ss, temperature = -40 -->
     <g transform="translate(453.54855 33.476562) scale(0.1 -0.1)">
      <use xlink:href="#DejaVuSans-63"/>
      <use xlink:href="#DejaVuSans-6f" x="54.980469"/>
      <use xlink:href="#DejaVuSans-72" x="116.162109"/>
      <use xlink:href="#DejaVuSans-6e" x="155.525391"/>
      <use xlink:href="#DejaVuSans-65" x="218.904297"/>
      <use xlink:href="#DejaVuSans-72" x="280.427734"/>
      <use xlink:href="#DejaVuSans-20" x="321.541016"/>
      <use xlink:href="#DejaVuSans-3d" x="353.328125"/>
      <use xlink:href="#DejaVuSans-20" x="437.117188"/>
      <use xlink:href="#DejaVuSans-73" x="468.904297"/>
      <use xlink:href="#DejaVuSans-73" x="521.003906"/>
      <use xlink:href="#DejaVuSans-2c" x="573.103516"/>
      <use xlink:href="#DejaVuSans-20" x="604.890625"/>
      <use xlink:href="#DejaVuSans-74" x="636.677734"/>
      <use xlink:href="#DejaVuSans-65" x="675.886719"/>
      <use xlink:href="#DejaVuSans-6d" x="737.410156"/>
      <use xlink:href="#DejaVuSans-70" x="834.822266"/>
      <use xlink:href="#DejaVuSans-65" x="898.298828"/>
      <use xlink:href="#DejaVuSans-72" x="959.822266"/>
      <use xlink:href="#DejaVuSans-61" x="1000.935547"/>
      <use xlink:href="#DejaVuSans-74" x="1062.214844"/>
      <use xlink:href="#DejaVuSans-75" x="1101.423828"/>
      <use xlink:href="#DejaVuSans-72" x="1164.802734"/>
      <use xlink:href="#DejaVuSans-65" x="1203.666016"/>
      <use xlink:href="#DejaVuSans-20" x="1265.189453"/>
      <use xlink:href="#DejaVuSans-3d" x="1296.976562"/>
      <use xlink:href="#DejaVuSans-20" x="1380.765625"/>
      <use xlink:href="#DejaVuSans-2d" x="1412.552734"/>
      <use xlink:href="#DejaVuSans-34" x="1448.636719"/>
      <use xlink:href="#DejaVuSans-30" x="1512.259766"/>
     </g>
    </g>
    <g id="line2d_35">
     <path d="M 425.54855 44.654687 
L 435.54855 44.654687 
L 445.54855 44.654687 
" style="fill: none; stroke: #2ca02c; stroke-width: 1.5; stroke-linecap: square"/>
    </g>
    <g id="text_20">
     <!-- corner = tt, temperature = -40 -->
     <g transform="translate(453.54855 48.154687) scale(0.1 -0.1)">
      <use xlink:href="#DejaVuSans-63"/>
      <use xlink:href="#DejaVuSans-6f" x="54.980469"/>
      <use xlink:href="#DejaVuSans-72" x="116.162109"/>
      <use xlink:href="#DejaVuSans-6e" x="155.525391"/>
      <use xlink:href="#DejaVuSans-65" x="218.904297"/>
      <use xlink:href="#DejaVuSans-72" x="280.427734"/>
      <use xlink:href="#DejaVuSans-20" x="321.541016"/>
      <use xlink:href="#DejaVuSans-3d" x="353.328125"/>
      <use xlink:href="#DejaVuSans-20" x="437.117188"/>
      <use xlink:href="#DejaVuSans-74" x="468.904297"/>
      <use xlink:href="#DejaVuSans-74" x="508.113281"/>
      <use xlink:href="#DejaVuSans-2c" x="547.322266"/>
      <use xlink:href="#DejaVuSans-20" x="579.109375"/>
      <use xlink:href="#DejaVuSans-74" x="610.896484"/>
      <use xlink:href="#DejaVuSans-65" x="650.105469"/>
      <use xlink:href="#DejaVuSans-6d" x="711.628906"/>
      <use xlink:href="#DejaVuSans-70" x="809.041016"/>
      <use xlink:href="#DejaVuSans-65" x="872.517578"/>
      <use xlink:href="#DejaVuSans-72" x="934.041016"/>
      <use xlink:href="#DejaVuSans-61" x="975.154297"/>
      <use xlink:href="#DejaVuSans-74" x="1036.433594"/>
      <use xlink:href="#DejaVuSans-75" x="1075.642578"/>
      <use xlink:href="#DejaVuSans-72" x="1139.021484"/>
      <use xlink:href="#DejaVuSans-65" x="1177.884766"/>
      <use xlink:href="#DejaVuSans-20" x="1239.408203"/>
      <use xlink:href="#DejaVuSans-3d" x="1271.195312"/>
      <use xlink:href="#DejaVuSans-20" x="1354.984375"/>
      <use xlink:href="#DejaVuSans-2d" x="1386.771484"/>
      <use xlink:href="#DejaVuSans-34" x="1422.855469"/>
      <use xlink:href="#DejaVuSans-30" x="1486.478516"/>
     </g>
    </g>
    <g id="line2d_36">
     <path d="M 425.54855 59.332812 
L 435.54855 59.332812 
L 445.54855 59.332812 
" style="fill: none; stroke: #d62728; stroke-width: 1.5; stroke-linecap: square"/>
    </g>
    <g id="text_21">
     <!-- corner = tt, temperature = -40 -->
     <g transform="translate(453.54855 62.832812) scale(0.1 -0.1)">
      <use xlink:href="#DejaVuSans-63"/>
      <use xlink:href="#DejaVuSans-6f" x="54.980469"/>
      <use xlink:href="#DejaVuSans-72" x="116.162109"/>
      <use xlink:href="#DejaVuSans-6e" x="155.525391"/>
      <use xlink:href="#DejaVuSans-65" x="218.904297"/>
      <use xlink:href="#DejaVuSans-72" x="280.427734"/>
      <use xlink:href="#DejaVuSans-20" x="321.541016"/>
      <use xlink:href="#DejaVuSans-3d" x="353.328125"/>
      <use xlink:href="#DejaVuSans-20" x="437.117188"/>
      <use xlink:href="#DejaVuSans-74" x="468.904297"/>
      <use xlink:href="#DejaVuSans-74" x="508.113281"/>
      <use xlink:href="#DejaVuSans-2c" x="547.322266"/>
      <use xlink:href="#DejaVuSans-20" x="579.109375"/>
      <use xlink:href="#DejaVuSans-74" x="610.896484"/>
      <use xlink:href="#DejaVuSans-65" x="650.105469"/>
      <use xlink:href="#DejaVuSans-6d" x="711.628906"/>
      <use xlink:href="#DejaVuSans-70" x="809.041016"/>
      <use xlink:href="#DejaVuSans-65" x="872.517578"/>
      <use xlink:href="#DejaVuSans-72" x="934.041016"/>
      <use xlink:href="#DejaVuSans-61" x="975.154297"/>
      <use xlink:href="#DejaVuSans-74" x="1036.433594"/>
      <use xlink:href="#DejaVuSans-75" x="1075.642578"/>
      <use xlink:href="#DejaVuSans-72" x="1139.021484"/>
      <use xlink:href="#DejaVuSans-65" x="1177.884766"/>
      <use xlink:href="#DejaVuSans-20" x="1239.408203"/>
      <use xlink:href="#DejaVuSans-3d" x="1271.195312"/>
      <use xlink:href="#DejaVuSans-20" x="1354.984375"/>
      <use xlink:href="#DejaVuSans-2d" x="1386.771484"/>
      <use xlink:href="#DejaVuSans-34" x="1422.855469"/>
      <use xlink:href="#DejaVuSans-30" x="1486.478516"/>
     </g>
    </g>
    <g id="line2d_37">
     <path d="M 425.54855 74.010938 
L 435.54855 74.010938 
L 445.54855 74.010938 
" style="fill: none; stroke: #9467bd; stroke-width: 1.5; stroke-linecap: square"/>
    </g>
    <g id="text_22">
     <!-- corner = ff, temperature = -40 -->
     <g transform="translate(453.54855 77.510938) scale(0.1 -0.1)">
      <defs>
       <path id="DejaVuSans-66" d="M 2375 4863 
L 2375 4384 
L 1825 4384 
Q 1516 4384 1395 4259 
Q 1275 4134 1275 3809 
L 1275 3500 
L 2222 3500 
L 2222 3053 
L 1275 3053 
L 1275 0 
L 697 0 
L 697 3053 
L 147 3053 
L 147 3500 
L 697 3500 
L 697 3744 
Q 697 4328 969 4595 
Q 1241 4863 1831 4863 
L 2375 4863 
z
" transform="scale(0.015625)"/>
      </defs>
      <use xlink:href="#DejaVuSans-63"/>
      <use xlink:href="#DejaVuSans-6f" x="54.980469"/>
      <use xlink:href="#DejaVuSans-72" x="116.162109"/>
      <use xlink:href="#DejaVuSans-6e" x="155.525391"/>
      <use xlink:href="#DejaVuSans-65" x="218.904297"/>
      <use xlink:href="#DejaVuSans-72" x="280.427734"/>
      <use xlink:href="#DejaVuSans-20" x="321.541016"/>
      <use xlink:href="#DejaVuSans-3d" x="353.328125"/>
      <use xlink:href="#DejaVuSans-20" x="437.117188"/>
      <use xlink:href="#DejaVuSans-66" x="468.904297"/>
      <use xlink:href="#DejaVuSans-66" x="504.109375"/>
      <use xlink:href="#DejaVuSans-2c" x="539.314453"/>
      <use xlink:href="#DejaVuSans-20" x="571.101562"/>
      <use xlink:href="#DejaVuSans-74" x="602.888672"/>
      <use xlink:href="#DejaVuSans-65" x="642.097656"/>
      <use xlink:href="#DejaVuSans-6d" x="703.621094"/>
      <use xlink:href="#DejaVuSans-70" x="801.033203"/>
      <use xlink:href="#DejaVuSans-65" x="864.509766"/>
      <use xlink:href="#DejaVuSans-72" x="926.033203"/>
      <use xlink:href="#DejaVuSans-61" x="967.146484"/>
      <use xlink:href="#DejaVuSans-74" x="1028.425781"/>
      <use xlink:href="#DejaVuSans-75" x="1067.634766"/>
      <use xlink:href="#DejaVuSans-72" x="1131.013672"/>
      <use xlink:href="#DejaVuSans-65" x="1169.876953"/>
      <use xlink:href="#DejaVuSans-20" x="1231.400391"/>
      <use xlink:href="#DejaVuSans-3d" x="1263.1875"/>
      <use xlink:href="#DejaVuSans-20" x="1346.976562"/>
      <use xlink:href="#DejaVuSans-2d" x="1378.763672"/>
      <use xlink:href="#DejaVuSans-34" x="1414.847656"/>
      <use xlink:href="#DejaVuSans-30" x="1478.470703"/>
     </g>
    </g>
    <g id="line2d_38">
     <path d="M 425.54855 88.689062 
L 435.54855 88.689062 
L 445.54855 88.689062 
" style="fill: none; stroke: #8c564b; stroke-width: 1.5; stroke-linecap: square"/>
    </g>
    <g id="text_23">
     <!-- corner = ff, temperature = -40 -->
     <g transform="translate(453.54855 92.189062) scale(0.1 -0.1)">
      <use xlink:href="#DejaVuSans-63"/>
      <use xlink:href="#DejaVuSans-6f" x="54.980469"/>
      <use xlink:href="#DejaVuSans-72" x="116.162109"/>
      <use xlink:href="#DejaVuSans-6e" x="155.525391"/>
      <use xlink:href="#DejaVuSans-65" x="218.904297"/>
      <use xlink:href="#DejaVuSans-72" x="280.427734"/>
      <use xlink:href="#DejaVuSans-20" x="321.541016"/>
      <use xlink:href="#DejaVuSans-3d" x="353.328125"/>
      <use xlink:href="#DejaVuSans-20" x="437.117188"/>
      <use xlink:href="#DejaVuSans-66" x="468.904297"/>
      <use xlink:href="#DejaVuSans-66" x="504.109375"/>
      <use xlink:href="#DejaVuSans-2c" x="539.314453"/>
      <use xlink:href="#DejaVuSans-20" x="571.101562"/>
      <use xlink:href="#DejaVuSans-74" x="602.888672"/>
      <use xlink:href="#DejaVuSans-65" x="642.097656"/>
      <use xlink:href="#DejaVuSans-6d" x="703.621094"/>
      <use xlink:href="#DejaVuSans-70" x="801.033203"/>
      <use xlink:href="#DejaVuSans-65" x="864.509766"/>
      <use xlink:href="#DejaVuSans-72" x="926.033203"/>
      <use xlink:href="#DejaVuSans-61" x="967.146484"/>
      <use xlink:href="#DejaVuSans-74" x="1028.425781"/>
      <use xlink:href="#DejaVuSans-75" x="1067.634766"/>
      <use xlink:href="#DejaVuSans-72" x="1131.013672"/>
      <use xlink:href="#DejaVuSans-65" x="1169.876953"/>
      <use xlink:href="#DejaVuSans-20" x="1231.400391"/>
      <use xlink:href="#DejaVuSans-3d" x="1263.1875"/>
      <use xlink:href="#DejaVuSans-20" x="1346.976562"/>
      <use xlink:href="#DejaVuSans-2d" x="1378.763672"/>
      <use xlink:href="#DejaVuSans-34" x="1414.847656"/>
      <use xlink:href="#DejaVuSans-30" x="1478.470703"/>
     </g>
    </g>
    <g id="line2d_39">
     <path d="M 425.54855 103.367188 
L 435.54855 103.367188 
L 445.54855 103.367188 
" style="fill: none; stroke: #e377c2; stroke-width: 1.5; stroke-linecap: square"/>
    </g>
    <g id="text_24">
     <!-- corner = ss, temperature = 27 -->
     <g transform="translate(453.54855 106.867188) scale(0.1 -0.1)">
      <use xlink:href="#DejaVuSans-63"/>
      <use xlink:href="#DejaVuSans-6f" x="54.980469"/>
      <use xlink:href="#DejaVuSans-72" x="116.162109"/>
      <use xlink:href="#DejaVuSans-6e" x="155.525391"/>
      <use xlink:href="#DejaVuSans-65" x="218.904297"/>
      <use xlink:href="#DejaVuSans-72" x="280.427734"/>
      <use xlink:href="#DejaVuSans-20" x="321.541016"/>
      <use xlink:href="#DejaVuSans-3d" x="353.328125"/>
      <use xlink:href="#DejaVuSans-20" x="437.117188"/>
      <use xlink:href="#DejaVuSans-73" x="468.904297"/>
      <use xlink:href="#DejaVuSans-73" x="521.003906"/>
      <use xlink:href="#DejaVuSans-2c" x="573.103516"/>
      <use xlink:href="#DejaVuSans-20" x="604.890625"/>
      <use xlink:href="#DejaVuSans-74" x="636.677734"/>
      <use xlink:href="#DejaVuSans-65" x="675.886719"/>
      <use xlink:href="#DejaVuSans-6d" x="737.410156"/>
      <use xlink:href="#DejaVuSans-70" x="834.822266"/>
      <use xlink:href="#DejaVuSans-65" x="898.298828"/>
      <use xlink:href="#DejaVuSans-72" x="959.822266"/>
      <use xlink:href="#DejaVuSans-61" x="1000.935547"/>
      <use xlink:href="#DejaVuSans-74" x="1062.214844"/>
      <use xlink:href="#DejaVuSans-75" x="1101.423828"/>
      <use xlink:href="#DejaVuSans-72" x="1164.802734"/>
      <use xlink:href="#DejaVuSans-65" x="1203.666016"/>
      <use xlink:href="#DejaVuSans-20" x="1265.189453"/>
      <use xlink:href="#DejaVuSans-3d" x="1296.976562"/>
      <use xlink:href="#DejaVuSans-20" x="1380.765625"/>
      <use xlink:href="#DejaVuSans-32" x="1412.552734"/>
      <use xlink:href="#DejaVuSans-37" x="1476.175781"/>
     </g>
    </g>
    <g id="line2d_40">
     <path d="M 425.54855 118.045312 
L 435.54855 118.045312 
L 445.54855 118.045312 
" style="fill: none; stroke: #7f7f7f; stroke-width: 1.5; stroke-linecap: square"/>
    </g>
    <g id="text_25">
     <!-- corner = ss, temperature = 27 -->
     <g transform="translate(453.54855 121.545312) scale(0.1 -0.1)">
      <use xlink:href="#DejaVuSans-63"/>
      <use xlink:href="#DejaVuSans-6f" x="54.980469"/>
      <use xlink:href="#DejaVuSans-72" x="116.162109"/>
      <use xlink:href="#DejaVuSans-6e" x="155.525391"/>
      <use xlink:href="#DejaVuSans-65" x="218.904297"/>
      <use xlink:href="#DejaVuSans-72" x="280.427734"/>
      <use xlink:href="#DejaVuSans-20" x="321.541016"/>
      <use xlink:href="#DejaVuSans-3d" x="353.328125"/>
      <use xlink:href="#DejaVuSans-20" x="437.117188"/>
      <use xlink:href="#DejaVuSans-73" x="468.904297"/>
      <use xlink:href="#DejaVuSans-73" x="521.003906"/>
      <use xlink:href="#DejaVuSans-2c" x="573.103516"/>
      <use xlink:href="#DejaVuSans-20" x="604.890625"/>
      <use xlink:href="#DejaVuSans-74" x="636.677734"/>
      <use xlink:href="#DejaVuSans-65" x="675.886719"/>
      <use xlink:href="#DejaVuSans-6d" x="737.410156"/>
      <use xlink:href="#DejaVuSans-70" x="834.822266"/>
      <use xlink:href="#DejaVuSans-65" x="898.298828"/>
      <use xlink:href="#DejaVuSans-72" x="959.822266"/>
      <use xlink:href="#DejaVuSans-61" x="1000.935547"/>
      <use xlink:href="#DejaVuSans-74" x="1062.214844"/>
      <use xlink:href="#DejaVuSans-75" x="1101.423828"/>
      <use xlink:href="#DejaVuSans-72" x="1164.802734"/>
      <use xlink:href="#DejaVuSans-65" x="1203.666016"/>
      <use xlink:href="#DejaVuSans-20" x="1265.189453"/>
      <use xlink:href="#DejaVuSans-3d" x="1296.976562"/>
      <use xlink:href="#DejaVuSans-20" x="1380.765625"/>
      <use xlink:href="#DejaVuSans-32" x="1412.552734"/>
      <use xlink:href="#DejaVuSans-37" x="1476.175781"/>
     </g>
    </g>
    <g id="line2d_41">
     <path d="M 425.54855 132.723437 
L 435.54855 132.723437 
L 445.54855 132.723437 
" style="fill: none; stroke: #bcbd22; stroke-width: 1.5; stroke-linecap: square"/>
    </g>
    <g id="text_26">
     <!-- corner = tt, temperature = 27 -->
     <g transform="translate(453.54855 136.223437) scale(0.1 -0.1)">
      <use xlink:href="#DejaVuSans-63"/>
      <use xlink:href="#DejaVuSans-6f" x="54.980469"/>
      <use xlink:href="#DejaVuSans-72" x="116.162109"/>
      <use xlink:href="#DejaVuSans-6e" x="155.525391"/>
      <use xlink:href="#DejaVuSans-65" x="218.904297"/>
      <use xlink:href="#DejaVuSans-72" x="280.427734"/>
      <use xlink:href="#DejaVuSans-20" x="321.541016"/>
      <use xlink:href="#DejaVuSans-3d" x="353.328125"/>
      <use xlink:href="#DejaVuSans-20" x="437.117188"/>
      <use xlink:href="#DejaVuSans-74" x="468.904297"/>
      <use xlink:href="#DejaVuSans-74" x="508.113281"/>
      <use xlink:href="#DejaVuSans-2c" x="547.322266"/>
      <use xlink:href="#DejaVuSans-20" x="579.109375"/>
      <use xlink:href="#DejaVuSans-74" x="610.896484"/>
      <use xlink:href="#DejaVuSans-65" x="650.105469"/>
      <use xlink:href="#DejaVuSans-6d" x="711.628906"/>
      <use xlink:href="#DejaVuSans-70" x="809.041016"/>
      <use xlink:href="#DejaVuSans-65" x="872.517578"/>
      <use xlink:href="#DejaVuSans-72" x="934.041016"/>
      <use xlink:href="#DejaVuSans-61" x="975.154297"/>
      <use xlink:href="#DejaVuSans-74" x="1036.433594"/>
      <use xlink:href="#DejaVuSans-75" x="1075.642578"/>
      <use xlink:href="#DejaVuSans-72" x="1139.021484"/>
      <use xlink:href="#DejaVuSans-65" x="1177.884766"/>
      <use xlink:href="#DejaVuSans-20" x="1239.408203"/>
      <use xlink:href="#DejaVuSans-3d" x="1271.195312"/>
      <use xlink:href="#DejaVuSans-20" x="1354.984375"/>
      <use xlink:href="#DejaVuSans-32" x="1386.771484"/>
      <use xlink:href="#DejaVuSans-37" x="1450.394531"/>
     </g>
    </g>
    <g id="line2d_42">
     <path d="M 425.54855 147.401562 
L 435.54855 147.401562 
L 445.54855 147.401562 
" style="fill: none; stroke: #17becf; stroke-width: 1.5; stroke-linecap: square"/>
    </g>
    <g id="text_27">
     <!-- corner = tt, temperature = 27 -->
     <g transform="translate(453.54855 150.901562) scale(0.1 -0.1)">
      <use xlink:href="#DejaVuSans-63"/>
      <use xlink:href="#DejaVuSans-6f" x="54.980469"/>
      <use xlink:href="#DejaVuSans-72" x="116.162109"/>
      <use xlink:href="#DejaVuSans-6e" x="155.525391"/>
      <use xlink:href="#DejaVuSans-65" x="218.904297"/>
      <use xlink:href="#DejaVuSans-72" x="280.427734"/>
      <use xlink:href="#DejaVuSans-20" x="321.541016"/>
      <use xlink:href="#DejaVuSans-3d" x="353.328125"/>
      <use xlink:href="#DejaVuSans-20" x="437.117188"/>
      <use xlink:href="#DejaVuSans-74" x="468.904297"/>
      <use xlink:href="#DejaVuSans-74" x="508.113281"/>
      <use xlink:href="#DejaVuSans-2c" x="547.322266"/>
      <use xlink:href="#DejaVuSans-20" x="579.109375"/>
      <use xlink:href="#DejaVuSans-74" x="610.896484"/>
      <use xlink:href="#DejaVuSans-65" x="650.105469"/>
      <use xlink:href="#DejaVuSans-6d" x="711.628906"/>
      <use xlink:href="#DejaVuSans-70" x="809.041016"/>
      <use xlink:href="#DejaVuSans-65" x="872.517578"/>
      <use xlink:href="#DejaVuSans-72" x="934.041016"/>
      <use xlink:href="#DejaVuSans-61" x="975.154297"/>
      <use xlink:href="#DejaVuSans-74" x="1036.433594"/>
      <use xlink:href="#DejaVuSans-75" x="1075.642578"/>
      <use xlink:href="#DejaVuSans-72" x="1139.021484"/>
      <use xlink:href="#DejaVuSans-65" x="1177.884766"/>
      <use xlink:href="#DejaVuSans-20" x="1239.408203"/>
      <use xlink:href="#DejaVuSans-3d" x="1271.195312"/>
      <use xlink:href="#DejaVuSans-20" x="1354.984375"/>
      <use xlink:href="#DejaVuSans-32" x="1386.771484"/>
      <use xlink:href="#DejaVuSans-37" x="1450.394531"/>
     </g>
    </g>
    <g id="line2d_43">
     <path d="M 425.54855 162.079687 
L 435.54855 162.079687 
L 445.54855 162.079687 
" style="fill: none; stroke: #1f77b4; stroke-width: 1.5; stroke-linecap: square"/>
    </g>
    <g id="text_28">
     <!-- corner = ff, temperature = 27 -->
     <g transform="translate(453.54855 165.579687) scale(0.1 -0.1)">
      <use xlink:href="#DejaVuSans-63"/>
      <use xlink:href="#DejaVuSans-6f" x="54.980469"/>
      <use xlink:href="#DejaVuSans-72" x="116.162109"/>
      <use xlink:href="#DejaVuSans-6e" x="155.525391"/>
      <use xlink:href="#DejaVuSans-65" x="218.904297"/>
      <use xlink:href="#DejaVuSans-72" x="280.427734"/>
      <use xlink:href="#DejaVuSans-20" x="321.541016"/>
      <use xlink:href="#DejaVuSans-3d" x="353.328125"/>
      <use xlink:href="#DejaVuSans-20" x="437.117188"/>
      <use xlink:href="#DejaVuSans-66" x="468.904297"/>
      <use xlink:href="#DejaVuSans-66" x="504.109375"/>
      <use xlink:href="#DejaVuSans-2c" x="539.314453"/>
      <use xlink:href="#DejaVuSans-20" x="571.101562"/>
      <use xlink:href="#DejaVuSans-74" x="602.888672"/>
      <use xlink:href="#DejaVuSans-65" x="642.097656"/>
      <use xlink:href="#DejaVuSans-6d" x="703.621094"/>
      <use xlink:href="#DejaVuSans-70" x="801.033203"/>
      <use xlink:href="#DejaVuSans-65" x="864.509766"/>
      <use xlink:href="#DejaVuSans-72" x="926.033203"/>
      <use xlink:href="#DejaVuSans-61" x="967.146484"/>
      <use xlink:href="#DejaVuSans-74" x="1028.425781"/>
      <use xlink:href="#DejaVuSans-75" x="1067.634766"/>
      <use xlink:href="#DejaVuSans-72" x="1131.013672"/>
      <use xlink:href="#DejaVuSans-65" x="1169.876953"/>
      <use xlink:href="#DejaVuSans-20" x="1231.400391"/>
      <use xlink:href="#DejaVuSans-3d" x="1263.1875"/>
      <use xlink:href="#DejaVuSans-20" x="1346.976562"/>
      <use xlink:href="#DejaVuSans-32" x="1378.763672"/>
      <use xlink:href="#DejaVuSans-37" x="1442.386719"/>
     </g>
    </g>
    <g id="line2d_44">
     <path d="M 425.54855 176.757812 
L 435.54855 176.757812 
L 445.54855 176.757812 
" style="fill: none; stroke: #ff7f0e; stroke-width: 1.5; stroke-linecap: square"/>
    </g>
    <g id="text_29">
     <!-- corner = ff, temperature = 27 -->
     <g transform="translate(453.54855 180.257812) scale(0.1 -0.1)">
      <use xlink:href="#DejaVuSans-63"/>
      <use xlink:href="#DejaVuSans-6f" x="54.980469"/>
      <use xlink:href="#DejaVuSans-72" x="116.162109"/>
      <use xlink:href="#DejaVuSans-6e" x="155.525391"/>
      <use xlink:href="#DejaVuSans-65" x="218.904297"/>
      <use xlink:href="#DejaVuSans-72" x="280.427734"/>
      <use xlink:href="#DejaVuSans-20" x="321.541016"/>
      <use xlink:href="#DejaVuSans-3d" x="353.328125"/>
      <use xlink:href="#DejaVuSans-20" x="437.117188"/>
      <use xlink:href="#DejaVuSans-66" x="468.904297"/>
      <use xlink:href="#DejaVuSans-66" x="504.109375"/>
      <use xlink:href="#DejaVuSans-2c" x="539.314453"/>
      <use xlink:href="#DejaVuSans-20" x="571.101562"/>
      <use xlink:href="#DejaVuSans-74" x="602.888672"/>
      <use xlink:href="#DejaVuSans-65" x="642.097656"/>
      <use xlink:href="#DejaVuSans-6d" x="703.621094"/>
      <use xlink:href="#DejaVuSans-70" x="801.033203"/>
      <use xlink:href="#DejaVuSans-65" x="864.509766"/>
      <use xlink:href="#DejaVuSans-72" x="926.033203"/>
      <use xlink:href="#DejaVuSans-61" x="967.146484"/>
      <use xlink:href="#DejaVuSans-74" x="1028.425781"/>
      <use xlink:href="#DejaVuSans-75" x="1067.634766"/>
      <use xlink:href="#DejaVuSans-72" x="1131.013672"/>
      <use xlink:href="#DejaVuSans-65" x="1169.876953"/>
      <use xlink:href="#DejaVuSans-20" x="1231.400391"/>
      <use xlink:href="#DejaVuSans-3d" x="1263.1875"/>
      <use xlink:href="#DejaVuSans-20" x="1346.976562"/>
      <use xlink:href="#DejaVuSans-32" x="1378.763672"/>
      <use xlink:href="#DejaVuSans-37" x="1442.386719"/>
     </g>
    </g>
    <g id="line2d_45">
     <path d="M 425.54855 191.435937 
L 435.54855 191.435937 
L 445.54855 191.435937 
" style="fill: none; stroke: #2ca02c; stroke-width: 1.5; stroke-linecap: square"/>
    </g>
    <g id="text_30">
     <!-- corner = ss, temperature = 130 -->
     <g transform="translate(453.54855 194.935937) scale(0.1 -0.1)">
      <use xlink:href="#DejaVuSans-63"/>
      <use xlink:href="#DejaVuSans-6f" x="54.980469"/>
      <use xlink:href="#DejaVuSans-72" x="116.162109"/>
      <use xlink:href="#DejaVuSans-6e" x="155.525391"/>
      <use xlink:href="#DejaVuSans-65" x="218.904297"/>
      <use xlink:href="#DejaVuSans-72" x="280.427734"/>
      <use xlink:href="#DejaVuSans-20" x="321.541016"/>
      <use xlink:href="#DejaVuSans-3d" x="353.328125"/>
      <use xlink:href="#DejaVuSans-20" x="437.117188"/>
      <use xlink:href="#DejaVuSans-73" x="468.904297"/>
      <use xlink:href="#DejaVuSans-73" x="521.003906"/>
      <use xlink:href="#DejaVuSans-2c" x="573.103516"/>
      <use xlink:href="#DejaVuSans-20" x="604.890625"/>
      <use xlink:href="#DejaVuSans-74" x="636.677734"/>
      <use xlink:href="#DejaVuSans-65" x="675.886719"/>
      <use xlink:href="#DejaVuSans-6d" x="737.410156"/>
      <use xlink:href="#DejaVuSans-70" x="834.822266"/>
      <use xlink:href="#DejaVuSans-65" x="898.298828"/>
      <use xlink:href="#DejaVuSans-72" x="959.822266"/>
      <use xlink:href="#DejaVuSans-61" x="1000.935547"/>
      <use xlink:href="#DejaVuSans-74" x="1062.214844"/>
      <use xlink:href="#DejaVuSans-75" x="1101.423828"/>
      <use xlink:href="#DejaVuSans-72" x="1164.802734"/>
      <use xlink:href="#DejaVuSans-65" x="1203.666016"/>
      <use xlink:href="#DejaVuSans-20" x="1265.189453"/>
      <use xlink:href="#DejaVuSans-3d" x="1296.976562"/>
      <use xlink:href="#DejaVuSans-20" x="1380.765625"/>
      <use xlink:href="#DejaVuSans-31" x="1412.552734"/>
      <use xlink:href="#DejaVuSans-33" x="1476.175781"/>
      <use xlink:href="#DejaVuSans-30" x="1539.798828"/>
     </g>
    </g>
    <g id="line2d_46">
     <path d="M 425.54855 206.114062 
L 435.54855 206.114062 
L 445.54855 206.114062 
" style="fill: none; stroke: #d62728; stroke-width: 1.5; stroke-linecap: square"/>
    </g>
    <g id="text_31">
     <!-- corner = ss, temperature = 130 -->
     <g transform="translate(453.54855 209.614062) scale(0.1 -0.1)">
      <use xlink:href="#DejaVuSans-63"/>
      <use xlink:href="#DejaVuSans-6f" x="54.980469"/>
      <use xlink:href="#DejaVuSans-72" x="116.162109"/>
      <use xlink:href="#DejaVuSans-6e" x="155.525391"/>
      <use xlink:href="#DejaVuSans-65" x="218.904297"/>
      <use xlink:href="#DejaVuSans-72" x="280.427734"/>
      <use xlink:href="#DejaVuSans-20" x="321.541016"/>
      <use xlink:href="#DejaVuSans-3d" x="353.328125"/>
      <use xlink:href="#DejaVuSans-20" x="437.117188"/>
      <use xlink:href="#DejaVuSans-73" x="468.904297"/>
      <use xlink:href="#DejaVuSans-73" x="521.003906"/>
      <use xlink:href="#DejaVuSans-2c" x="573.103516"/>
      <use xlink:href="#DejaVuSans-20" x="604.890625"/>
      <use xlink:href="#DejaVuSans-74" x="636.677734"/>
      <use xlink:href="#DejaVuSans-65" x="675.886719"/>
      <use xlink:href="#DejaVuSans-6d" x="737.410156"/>
      <use xlink:href="#DejaVuSans-70" x="834.822266"/>
      <use xlink:href="#DejaVuSans-65" x="898.298828"/>
      <use xlink:href="#DejaVuSans-72" x="959.822266"/>
      <use xlink:href="#DejaVuSans-61" x="1000.935547"/>
      <use xlink:href="#DejaVuSans-74" x="1062.214844"/>
      <use xlink:href="#DejaVuSans-75" x="1101.423828"/>
      <use xlink:href="#DejaVuSans-72" x="1164.802734"/>
      <use xlink:href="#DejaVuSans-65" x="1203.666016"/>
      <use xlink:href="#DejaVuSans-20" x="1265.189453"/>
      <use xlink:href="#DejaVuSans-3d" x="1296.976562"/>
      <use xlink:href="#DejaVuSans-20" x="1380.765625"/>
      <use xlink:href="#DejaVuSans-31" x="1412.552734"/>
      <use xlink:href="#DejaVuSans-33" x="1476.175781"/>
      <use xlink:href="#DejaVuSans-30" x="1539.798828"/>
     </g>
    </g>
    <g id="line2d_47">
     <path d="M 425.54855 220.792187 
L 435.54855 220.792187 
L 445.54855 220.792187 
" style="fill: none; stroke: #9467bd; stroke-width: 1.5; stroke-linecap: square"/>
    </g>
    <g id="text_32">
     <!-- corner = tt, temperature = 130 -->
     <g transform="translate(453.54855 224.292187) scale(0.1 -0.1)">
      <use xlink:href="#DejaVuSans-63"/>
      <use xlink:href="#DejaVuSans-6f" x="54.980469"/>
      <use xlink:href="#DejaVuSans-72" x="116.162109"/>
      <use xlink:href="#DejaVuSans-6e" x="155.525391"/>
      <use xlink:href="#DejaVuSans-65" x="218.904297"/>
      <use xlink:href="#DejaVuSans-72" x="280.427734"/>
      <use xlink:href="#DejaVuSans-20" x="321.541016"/>
      <use xlink:href="#DejaVuSans-3d" x="353.328125"/>
      <use xlink:href="#DejaVuSans-20" x="437.117188"/>
      <use xlink:href="#DejaVuSans-74" x="468.904297"/>
      <use xlink:href="#DejaVuSans-74" x="508.113281"/>
      <use xlink:href="#DejaVuSans-2c" x="547.322266"/>
      <use xlink:href="#DejaVuSans-20" x="579.109375"/>
      <use xlink:href="#DejaVuSans-74" x="610.896484"/>
      <use xlink:href="#DejaVuSans-65" x="650.105469"/>
      <use xlink:href="#DejaVuSans-6d" x="711.628906"/>
      <use xlink:href="#DejaVuSans-70" x="809.041016"/>
      <use xlink:href="#DejaVuSans-65" x="872.517578"/>
      <use xlink:href="#DejaVuSans-72" x="934.041016"/>
      <use xlink:href="#DejaVuSans-61" x="975.154297"/>
      <use xlink:href="#DejaVuSans-74" x="1036.433594"/>
      <use xlink:href="#DejaVuSans-75" x="1075.642578"/>
      <use xlink:href="#DejaVuSans-72" x="1139.021484"/>
      <use xlink:href="#DejaVuSans-65" x="1177.884766"/>
      <use xlink:href="#DejaVuSans-20" x="1239.408203"/>
      <use xlink:href="#DejaVuSans-3d" x="1271.195312"/>
      <use xlink:href="#DejaVuSans-20" x="1354.984375"/>
      <use xlink:href="#DejaVuSans-31" x="1386.771484"/>
      <use xlink:href="#DejaVuSans-33" x="1450.394531"/>
      <use xlink:href="#DejaVuSans-30" x="1514.017578"/>
     </g>
    </g>
    <g id="line2d_48">
     <path d="M 425.54855 235.470312 
L 435.54855 235.470312 
L 445.54855 235.470312 
" style="fill: none; stroke: #8c564b; stroke-width: 1.5; stroke-linecap: square"/>
    </g>
    <g id="text_33">
     <!-- corner = tt, temperature = 130 -->
     <g transform="translate(453.54855 238.970312) scale(0.1 -0.1)">
      <use xlink:href="#DejaVuSans-63"/>
      <use xlink:href="#DejaVuSans-6f" x="54.980469"/>
      <use xlink:href="#DejaVuSans-72" x="116.162109"/>
      <use xlink:href="#DejaVuSans-6e" x="155.525391"/>
      <use xlink:href="#DejaVuSans-65" x="218.904297"/>
      <use xlink:href="#DejaVuSans-72" x="280.427734"/>
      <use xlink:href="#DejaVuSans-20" x="321.541016"/>
      <use xlink:href="#DejaVuSans-3d" x="353.328125"/>
      <use xlink:href="#DejaVuSans-20" x="437.117188"/>
      <use xlink:href="#DejaVuSans-74" x="468.904297"/>
      <use xlink:href="#DejaVuSans-74" x="508.113281"/>
      <use xlink:href="#DejaVuSans-2c" x="547.322266"/>
      <use xlink:href="#DejaVuSans-20" x="579.109375"/>
      <use xlink:href="#DejaVuSans-74" x="610.896484"/>
      <use xlink:href="#DejaVuSans-65" x="650.105469"/>
      <use xlink:href="#DejaVuSans-6d" x="711.628906"/>
      <use xlink:href="#DejaVuSans-70" x="809.041016"/>
      <use xlink:href="#DejaVuSans-65" x="872.517578"/>
      <use xlink:href="#DejaVuSans-72" x="934.041016"/>
      <use xlink:href="#DejaVuSans-61" x="975.154297"/>
      <use xlink:href="#DejaVuSans-74" x="1036.433594"/>
      <use xlink:href="#DejaVuSans-75" x="1075.642578"/>
      <use xlink:href="#DejaVuSans-72" x="1139.021484"/>
      <use xlink:href="#DejaVuSans-65" x="1177.884766"/>
      <use xlink:href="#DejaVuSans-20" x="1239.408203"/>
      <use xlink:href="#DejaVuSans-3d" x="1271.195312"/>
      <use xlink:href="#DejaVuSans-20" x="1354.984375"/>
      <use xlink:href="#DejaVuSans-31" x="1386.771484"/>
      <use xlink:href="#DejaVuSans-33" x="1450.394531"/>
      <use xlink:href="#DejaVuSans-30" x="1514.017578"/>
     </g>
    </g>
    <g id="line2d_49">
     <path d="M 425.54855 250.148437 
L 435.54855 250.148437 
L 445.54855 250.148437 
" style="fill: none; stroke: #e377c2; stroke-width: 1.5; stroke-linecap: square"/>
    </g>
    <g id="text_34">
     <!-- corner = ff, temperature = 130 -->
     <g transform="translate(453.54855 253.648437) scale(0.1 -0.1)">
      <use xlink:href="#DejaVuSans-63"/>
      <use xlink:href="#DejaVuSans-6f" x="54.980469"/>
      <use xlink:href="#DejaVuSans-72" x="116.162109"/>
      <use xlink:href="#DejaVuSans-6e" x="155.525391"/>
      <use xlink:href="#DejaVuSans-65" x="218.904297"/>
      <use xlink:href="#DejaVuSans-72" x="280.427734"/>
      <use xlink:href="#DejaVuSans-20" x="321.541016"/>
      <use xlink:href="#DejaVuSans-3d" x="353.328125"/>
      <use xlink:href="#DejaVuSans-20" x="437.117188"/>
      <use xlink:href="#DejaVuSans-66" x="468.904297"/>
      <use xlink:href="#DejaVuSans-66" x="504.109375"/>
      <use xlink:href="#DejaVuSans-2c" x="539.314453"/>
      <use xlink:href="#DejaVuSans-20" x="571.101562"/>
      <use xlink:href="#DejaVuSans-74" x="602.888672"/>
      <use xlink:href="#DejaVuSans-65" x="642.097656"/>
      <use xlink:href="#DejaVuSans-6d" x="703.621094"/>
      <use xlink:href="#DejaVuSans-70" x="801.033203"/>
      <use xlink:href="#DejaVuSans-65" x="864.509766"/>
      <use xlink:href="#DejaVuSans-72" x="926.033203"/>
      <use xlink:href="#DejaVuSans-61" x="967.146484"/>
      <use xlink:href="#DejaVuSans-74" x="1028.425781"/>
      <use xlink:href="#DejaVuSans-75" x="1067.634766"/>
      <use xlink:href="#DejaVuSans-72" x="1131.013672"/>
      <use xlink:href="#DejaVuSans-65" x="1169.876953"/>
      <use xlink:href="#DejaVuSans-20" x="1231.400391"/>
      <use xlink:href="#DejaVuSans-3d" x="1263.1875"/>
      <use xlink:href="#DejaVuSans-20" x="1346.976562"/>
      <use xlink:href="#DejaVuSans-31" x="1378.763672"/>
      <use xlink:href="#DejaVuSans-33" x="1442.386719"/>
      <use xlink:href="#DejaVuSans-30" x="1506.009766"/>
     </g>
    </g>
    <g id="line2d_50">
     <path d="M 425.54855 264.826562 
L 435.54855 264.826562 
L 445.54855 264.826562 
" style="fill: none; stroke: #7f7f7f; stroke-width: 1.5; stroke-linecap: square"/>
    </g>
    <g id="text_35">
     <!-- corner = ff, temperature = 130 -->
     <g transform="translate(453.54855 268.326562) scale(0.1 -0.1)">
      <use xlink:href="#DejaVuSans-63"/>
      <use xlink:href="#DejaVuSans-6f" x="54.980469"/>
      <use xlink:href="#DejaVuSans-72" x="116.162109"/>
      <use xlink:href="#DejaVuSans-6e" x="155.525391"/>
      <use xlink:href="#DejaVuSans-65" x="218.904297"/>
      <use xlink:href="#DejaVuSans-72" x="280.427734"/>
      <use xlink:href="#DejaVuSans-20" x="321.541016"/>
      <use xlink:href="#DejaVuSans-3d" x="353.328125"/>
      <use xlink:href="#DejaVuSans-20" x="437.117188"/>
      <use xlink:href="#DejaVuSans-66" x="468.904297"/>
      <use xlink:href="#DejaVuSans-66" x="504.109375"/>
      <use xlink:href="#DejaVuSans-2c" x="539.314453"/>
      <use xlink:href="#DejaVuSans-20" x="571.101562"/>
      <use xlink:href="#DejaVuSans-74" x="602.888672"/>
      <use xlink:href="#DejaVuSans-65" x="642.097656"/>
      <use xlink:href="#DejaVuSans-6d" x="703.621094"/>
      <use xlink:href="#DejaVuSans-70" x="801.033203"/>
      <use xlink:href="#DejaVuSans-65" x="864.509766"/>
      <use xlink:href="#DejaVuSans-72" x="926.033203"/>
      <use xlink:href="#DejaVuSans-61" x="967.146484"/>
      <use xlink:href="#DejaVuSans-74" x="1028.425781"/>
      <use xlink:href="#DejaVuSans-75" x="1067.634766"/>
      <use xlink:href="#DejaVuSans-72" x="1131.013672"/>
      <use xlink:href="#DejaVuSans-65" x="1169.876953"/>
      <use xlink:href="#DejaVuSans-20" x="1231.400391"/>
      <use xlink:href="#DejaVuSans-3d" x="1263.1875"/>
      <use xlink:href="#DejaVuSans-20" x="1346.976562"/>
      <use xlink:href="#DejaVuSans-31" x="1378.763672"/>
      <use xlink:href="#DejaVuSans-33" x="1442.386719"/>
      <use xlink:href="#DejaVuSans-30" x="1506.009766"/>
     </g>
    </g>
   </g>
  </g>
 </g>
 <defs>
  <clipPath id="p827e78288c">
   <rect x="50.14375" y="7.2" width="357.12" height="266.112"/>
  </clipPath>
 </defs>
</svg>
